<svg viewBox="0 0 256 256" xmlns="http://www.w3.org/2000/svg">
    <g fill="none" fill-rule="evenodd" stroke-linejoin="round">
        <path
            d="m160 204.8 32 25.6-32 25.6-32-25.6 32-25.6Zm64 0 32 25.6-32 25.6-32-25.6 32-25.6ZM96 0l32 25.6-31.875 25.5L128 76.6l-31.877 25.5L128 127.6l-31.876 25.5L128 178.6l-31.875 25.5L128 229.6l-32 25.6-32-25.6 31.875-25.5L64 178.6l-31.875 25.5L64 229.6l-32 25.6-32-25.6 31.875-25.5L0 178.6l31.875-25.5L0 127.6l31.876-25.5L0 76.6l31.874-25.5L0 25.6 32 0l32 25.6L96 0Zm64 102.4 32 25.6-31.999 25.6L192 179.2l-32 25.6-32-25.6 31.999-25.6L128 128l32-25.6Zm64 0 32 25.6-31.999 25.6L256 179.2l-32 25.6-32-25.6 31.999-25.6L192 128l32-25.6ZM64 127.6l-31.875 25.5L64 178.6l31.874-25.5L64 127.6Zm0-51-31.876 25.5L64 127.6l31.875-25.5L64 76.6Zm96-25.4 32 25.6-32 25.6-32-25.6 32-25.6Zm64 0 32 25.6-32 25.6-32-25.6 32-25.6ZM64 25.6 32.126 51.1 64 76.6l31.873-25.5L64 25.6ZM160 0l32 25.6-32 25.6-32-25.6L160 0Zm64 0 32 25.6-32 25.6-32-25.6L224 0Z"
            stroke="#32C5FF66" stroke-width="5" />
        <path
            d="m134.143786 32.1515554-12.236366 9.8570723c-.430094.3464645-.497889.9759895-.151424 1.4060834a.99998162.99998162 0 0 0 .157424.1562196l48.4162074 38.3910278L70.307627 161.275959l-48.599516-38.536995c-.366201-.290386-.884699-.288395-1.248659.004795l-12.236366 9.857073c-.430094.346464-.497889.975989-.151425 1.406083a1.0001079 1.0001079 0 0 0 .157424.15622l112.077725 88.874132c.366201.290387.884699.288395 1.248659-.004795l12.236366-9.857072c.430094-.346465.497889-.97599.151424-1.406084a.99997353.99997353 0 0 0-.157424-.156219l-49.535208-39.280138 100.0210004-79.3140005 49.7195165 39.4261045c.3662013.290387.8846992.288395 1.2486594-.004795l12.23636569-9.857072c.43009391-.346465.49788891-.97599.15142437-1.406083-.04652006-.05775-.09931936-.110145-.15742399-.15622L135.392445 32.1467602c-.366201-.2903862-.884699-.288395-1.248659.0047952Z"
            stroke="#222" fill="#222" />
    </g>
</svg>