<?xml version="1.0" encoding="UTF-8"?>
<svg viewBox="0 0 256 256" version="1.1" xmlns="http://www.w3.org/2000/svg" xmlns:xlink="http://www.w3.org/1999/xlink">
    <title>right-to-left</title>
    <g id="right-to-left" stroke="none" stroke-width="1" fill="none" fill-rule="evenodd" stroke-linejoin="round">
        <path d="M160,204.8 L192,230.4 L160,256 L128,230.4 L160,204.8 Z M224,204.8 L256,230.4 L224,256 L192,230.4 L224,204.8 Z M96,0 L128,25.6 L96.125,51.1 L128,76.6 L96.123,102.1 L128,127.6 L96.124,153.1 L128,178.6 L96.125,204.1 L128,229.6 L96,255.2 L64,229.6 L95.875,204.1 L64,178.6 L32.125,204.1 L64,229.6 L32,255.2 L0,229.6 L31.875,204.1 L0,178.6 L31.875,153.1 L3.19744231e-14,127.6 L31.876,102.1 L0,76.6 L31.874,51.1 L0,25.6 L32,0 L64,25.6 L96,0 Z M160,102.4 L192,128 L160.001,153.6 L192,179.2 L160,204.8 L128,179.2 L159.999,153.6 L128,128 L160,102.4 Z M224,102.4 L256,128 L224.001,153.6 L256,179.2 L224,204.8 L192,179.2 L223.999,153.6 L192,128 L224,102.4 Z M64,127.6 L32.125,153.1 L64,178.6 L95.874,153.1 L64,127.6 Z M64,76.6 L32.124,102.1 L64,127.6 L95.875,102.1 L64,76.6 Z M160,51.2 L192,76.8 L160,102.4 L128,76.8 L160,51.2 Z M224,51.2 L256,76.8 L224,102.4 L192,76.8 L224,51.2 Z M64,25.6 L32.126,51.1 L64,76.6 L95.873,51.1 L64,25.6 Z M160,0 L192,25.6 L160,51.2 L128,25.6 L160,0 Z M224,7.10542736e-15 L256,25.6 L224,51.2 L192,25.6 L224,7.10542736e-15 Z" id="Combined-Shape" stroke="#32C5FF" stroke-width="0.5"></path>
        <path d="M121.705842,32.2215968 L133.942207,42.0786691 C134.372301,42.4251337 134.440096,43.0546587 134.093632,43.4847526 C134.047112,43.5425016 133.994312,43.594897 133.936208,43.6409721 L85.52,82.032 L185.542,161.346 L234.141517,122.809006 C234.507718,122.518619 235.026216,122.520611 235.390176,122.813801 L247.626542,132.670873 C248.056636,133.017338 248.124431,133.646863 247.777966,134.076957 C247.731446,134.134706 247.678647,134.187101 247.620542,134.233176 L135.542818,223.107309 C135.176617,223.397695 134.658119,223.395704 134.294158,223.102514 L122.057793,213.245441 C121.627699,212.898977 121.559904,212.269452 121.906368,211.839358 C121.952888,211.781609 122.005688,211.729214 122.063792,211.683138 L171.599,172.403 L71.578,93.089 L21.8584835,132.515105 C21.4922821,132.805491 20.9737842,132.8035 20.609824,132.51031 L8.37345834,122.653237 C7.94336443,122.306773 7.87556943,121.677248 8.22203396,121.247154 C8.26855403,121.189405 8.32135332,121.13701 8.37945795,121.090935 L120.457182,32.2168017 C120.823383,31.9264155 121.341881,31.9284066 121.705842,32.2215968 Z" id="Combined-Shape" stroke="#222222" fill="#222222"></path>
    </g>
</svg>