<?xml version="1.0" encoding="UTF-8"?>
<svg viewBox="0 0 256 256" version="1.1" xmlns="http://www.w3.org/2000/svg" xmlns:xlink="http://www.w3.org/1999/xlink">
    <title>top-to-bottom</title>
    <g id="top-to-bottom" stroke="none" stroke-width="1" fill="none" fill-rule="evenodd">
        <path d="M160,204.8 L192,230.4 L160,256 L128,230.4 L160,204.8 Z M224,204.8 L256,230.4 L224,256 L192,230.4 L224,204.8 Z M96,0 L128,25.6 L96.125,51.1 L128,76.6 L96.123,102.1 L128,127.6 L96.124,153.1 L128,178.6 L96.125,204.1 L128,229.6 L96,255.2 L64,229.6 L95.875,204.1 L64,178.6 L32.125,204.1 L64,229.6 L32,255.2 L0,229.6 L31.875,204.1 L0,178.6 L31.875,153.1 L3.19744231e-14,127.6 L31.876,102.1 L0,76.6 L31.874,51.1 L0,25.6 L32,0 L64,25.6 L96,0 Z M160,102.4 L192,128 L160.001,153.6 L192,179.2 L160,204.8 L128,179.2 L159.999,153.6 L128,128 L160,102.4 Z M224,102.4 L256,128 L224.001,153.6 L256,179.2 L224,204.8 L192,179.2 L223.999,153.6 L192,128 L224,102.4 Z M64,127.6 L32.125,153.1 L64,178.6 L95.874,153.1 L64,127.6 Z M64,76.6 L32.124,102.1 L64,127.6 L95.875,102.1 L64,76.6 Z M160,51.2 L192,76.8 L160,102.4 L128,76.8 L160,51.2 Z M224,51.2 L256,76.8 L224,102.4 L192,76.8 L224,51.2 Z M64,25.6 L32.126,51.1 L64,76.6 L95.873,51.1 L64,25.6 Z M160,0 L192,25.6 L160,51.2 L128,25.6 L160,0 Z M224,7.10542736e-15 L256,25.6 L224,51.2 L192,25.6 L224,7.10542736e-15 Z" id="Combined-Shape" stroke="#32C5FF" stroke-width="0.5" stroke-linejoin="round"></path>
        <path d="M121,207 L121,50 C121,49.4477153 121.447715,49 122,49 L57,49 C56.4477153,49 56,48.5522847 56,48 L56,34 C56,33.4477153 56.4477153,33 57,33 L199,33 C199.552285,33 200,33.4477153 200,34 L200,48 C200,48.5522847 199.552285,49 199,49 L136,49 C136.552285,49 137,49.4477153 137,50 L137,207 C137,207.552285 136.552285,208 136,208 L199,208 C199.552285,208 200,208.447715 200,209 L200,223 C200,223.552285 199.552285,224 199,224 L57,224 C56.4477153,224 56,223.552285 56,223 L56,209 C56,208.447715 56.4477153,208 57,208 L122,208 C121.447715,208 121,207.552285 121,207 Z" id="Combined-Shape" stroke="#222222" fill="#222222" stroke-linejoin="bevel"></path>
    </g>
</svg>