<svg width="720" height="720" fill="none" xmlns="http://www.w3.org/2000/svg">
    <g clip-path="url(#a)">
        <rect x="17" y="161" width="686" height="542" rx="1" stroke="#147EBA" stroke-width="2" stroke-dasharray="5 5" />
        <rect x="16" y="160" width="48" height="48" rx="2" fill="#147EBA" />
        <path fill-rule="evenodd" clip-rule="evenodd"
            d="m53.5771 185.152-5.1017-6.309 5.1017-6.322H31.1543v-1.783c.814-.265 1.3664-1.022 1.3714-1.879-.0864-1.045-.9601-1.849-2.0091-1.849-1.049 0-1.9227.804-2.0092 1.849.0007.858.5548 1.617 1.3715 1.879v29.033h-3.456v1.372h8.1051v-1.372h-3.3737v-14.619h22.4228Zm-23.1085-16.923c.2631-.006.5032.149.6064.391.1033.242.049.523-.1371.709-.1861.186-.4666.24-.7087.137-.242-.103-.397-.343-.3915-.607.0073-.345.2855-.623.6309-.63Zm16.2377 10.614 3.9908-4.95H31.1543v9.888h19.5428l-3.9908-4.938Z"
            fill="#fff" />
        <path
            d="M77.3008 178.203h4.5263c.9727 0 1.8018.147 2.4874.44.6855.293 1.2099.726 1.5732 1.3.3691.569.5537 1.272.5537 2.11 0 .638-.1172 1.201-.3516 1.687-.2343.487-.5654.897-.9931 1.231-.4278.328-.9375.583-1.5293.764l-.668.326h-4.0693l-.0176-1.749h3.0498c.5273 0 .9668-.094 1.3184-.282.3515-.187.6152-.442.791-.764.1816-.328.2724-.698.2724-1.108 0-.445-.0879-.832-.2636-1.16-.17-.334-.4336-.589-.791-.765-.3575-.181-.8116-.272-1.3624-.272h-2.3203V191h-2.206v-12.797ZM84.6045 191l-3.0059-5.748 2.3116-.009 3.0498 5.643V191h-2.3555Zm8.1656.176c-.7031 0-1.3389-.114-1.9072-.343-.5625-.234-1.043-.56-1.4414-.976-.3926-.416-.6944-.905-.9053-1.467-.2109-.563-.3164-1.169-.3164-1.82v-.351c0-.744.1084-1.418.3252-2.022.2168-.603.5186-1.119.9053-1.547.3867-.433.8437-.764 1.3711-.993.5273-.228 1.0986-.343 1.7138-.343.6797 0 1.2744.115 1.7842.343.5098.229.9317.551 1.2656.967.3399.41.5918.899.7559 1.468.1699.568.2549 1.195.2549 1.881v.905h-7.3477v-1.521h5.2559v-.167c-.0117-.38-.0879-.738-.2285-1.072-.1348-.334-.3428-.603-.6241-.808-.2812-.206-.6562-.308-1.125-.308-.3515 0-.665.076-.9404.228-.2695.147-.4951.361-.6767.642-.1817.281-.3223.621-.4219 1.02-.0938.392-.1406.835-.1406 1.327v.351c0 .416.0556.803.1669 1.16.1172.352.2872.66.5098.923.2227.264.4922.472.8086.624.3164.147.6768.22 1.0811.22.5097 0 .9638-.102 1.3623-.308.3984-.205.7441-.495 1.0371-.87l1.1162 1.081c-.2051.299-.4717.586-.7998.862-.3281.269-.7295.489-1.2041.659-.4688.17-1.0137.255-1.6348.255Zm11.6989-9.686h1.925v9.246c0 .856-.182 1.582-.545 2.18-.363.598-.87 1.052-1.521 1.362-.65.317-1.403.475-2.258.475-.364 0-.768-.053-1.213-.158-.44-.106-.8675-.276-1.2836-.51-.4101-.229-.7529-.53-1.0283-.905l.9932-1.248c.3398.404.7147.7 1.1247.887.41.188.841.282 1.292.282.487 0 .9-.091 1.24-.273.345-.176.612-.436.799-.782.188-.346.282-.768.282-1.266v-7.136l.193-2.154Zm-6.46 4.861v-.185c0-.721.0879-1.377.2637-1.969.1757-.597.4277-1.11.7558-1.538.3281-.433.7266-.764 1.1955-.993.469-.234.999-.352 1.591-.352.615 0 1.139.112 1.573.334.439.223.806.542 1.099.958.292.411.521.903.685 1.477.17.568.296 1.201.378 1.898v.589c-.076.68-.205 1.301-.387 1.864-.181.562-.422 1.048-.72 1.459-.299.41-.668.726-1.108.949-.433.222-.946.334-1.538.334-.58 0-1.104-.12-1.573-.361-.4631-.24-.8615-.577-1.1955-1.01-.3281-.434-.5801-.944-.7558-1.53-.1758-.591-.2637-1.233-.2637-1.924Zm2.118-.185v.185c0 .433.041.837.123 1.212.088.375.22.707.396.994.181.281.41.504.685.668.281.158.613.237.993.237.498 0 .906-.106 1.222-.316.322-.211.568-.496.738-.853.176-.363.299-.768.37-1.213v-1.591c-.036-.345-.109-.668-.22-.967-.106-.298-.249-.559-.431-.782-.182-.228-.41-.404-.685-.527-.276-.129-.601-.193-.976-.193-.381 0-.712.082-.993.246-.281.164-.513.389-.695.676-.175.287-.307.621-.395 1.002-.088.381-.132.788-.132 1.222Zm10.882-4.676V191h-2.127v-9.51h2.127Zm-2.268-2.496c0-.322.105-.589.316-.8.217-.216.516-.325.897-.325.375 0 .671.109.888.325.216.211.325.478.325.8 0 .317-.109.58-.325.791-.217.211-.513.317-.888.317-.381 0-.68-.106-.897-.317-.211-.211-.316-.474-.316-.791Zm4.334 7.357v-.203c0-.685.099-1.321.298-1.907.2-.592.487-1.104.862-1.538.381-.439.844-.779 1.388-1.019.551-.246 1.172-.37 1.864-.37.697 0 1.318.124 1.863.37.551.24 1.017.58 1.397 1.019.381.434.671.946.871 1.538.199.586.298 1.222.298 1.907v.203c0 .685-.099 1.321-.298 1.907-.2.586-.49 1.098-.871 1.538-.38.433-.843.773-1.388 1.019-.545.241-1.163.361-1.855.361-.697 0-1.321-.12-1.872-.361-.545-.246-1.008-.586-1.388-1.019-.381-.44-.671-.952-.871-1.538-.199-.586-.298-1.222-.298-1.907Zm2.118-.203v.203c0 .427.044.832.132 1.212.087.381.225.715.413 1.002.187.288.427.513.72.677.293.164.642.246 1.046.246.393 0 .733-.082 1.02-.246.293-.164.533-.389.721-.677.187-.287.325-.621.413-1.002.093-.38.14-.785.14-1.212v-.203c0-.421-.047-.82-.14-1.195-.088-.381-.229-.718-.422-1.011-.188-.293-.428-.521-.721-.685-.287-.17-.63-.255-1.028-.255-.399 0-.744.085-1.037.255-.288.164-.525.392-.712.685-.188.293-.326.63-.413 1.011-.088.375-.132.774-.132 1.195Zm10.749-2.627V191h-2.118v-9.51h1.995l.123 2.031Zm-.378 2.373-.685-.009c.006-.674.1-1.292.281-1.855.188-.562.445-1.046.774-1.45.334-.404.732-.715 1.195-.932.463-.222.978-.334 1.547-.334.457 0 .87.065 1.239.194.375.123.694.325.958.606.27.282.475.648.615 1.099.141.445.211.993.211 1.643V191h-2.127v-6.152c0-.457-.067-.818-.202-1.081-.129-.27-.319-.46-.571-.572-.246-.117-.554-.175-.923-.175-.363 0-.688.076-.976.228-.287.152-.53.36-.729.624-.193.264-.343.568-.448.914-.106.346-.159.715-.159 1.108Z"
            fill="#147EBA" />
    </g>
    <g clip-path="url(#b)">
        <rect x="25" y="241" width="670" height="454" rx="1" stroke="#248814" stroke-width="2" />
        <rect x="24" y="240" width="48" height="48" rx="2" fill="#248814" />
        <g fill="#fff">
            <path
                d="M47.3216 269.773h-8.96c-3.5072 0-6.1888-2.343-6.368-5.562v-.441c-.1122-2.751 1.6902-5.214 4.3456-5.94v-.512c.066-3.523 2.2438-6.661 5.5213-7.955 3.2774-1.295 7.0118-.492 9.4675 2.035.8375.829 1.5183 1.803 2.0096 2.874.7022-.564 1.5761-.871 2.4768-.87 1.856 0 3.84 1.324 4.1664 4.275 1.5772.312 3 1.154 4.032 2.387l-1.0048.787c-.9583-1.096-2.2773-1.814-3.7184-2.022-.2967-.048-.5204-.295-.5376-.595-.1472-2.452-1.5808-3.552-2.9376-3.552-.8637.008-1.6738.42-2.1888 1.113-.14.187-.3706.282-.6016.25-.2321-.036-.4261-.195-.5056-.416-.4381-1.244-1.1488-2.375-2.08-3.309-2.0902-2.15-5.2653-2.839-8.0588-1.749-2.7934 1.091-4.6615 3.75-4.7412 6.747.0009.306.018.612.0512.916.0319.315-.1724.607-.48.684-1.4528.359-3.904 1.472-3.904 4.852-.0064.115-.0064.23 0 .345.1408 2.56 2.2848 4.378 5.12 4.378h8.96l-.064 1.28Z" />
            <path fill-rule="evenodd" clip-rule="evenodd"
                d="M48.6016 270.592c0 .083.0896 8.614 7.68 8.614s7.68-8.051 7.68-8.134v-8.269c.0009-.268-.1651-.508-.416-.601l-7.04-2.605c-.1449-.051-.3031-.051-.448 0l-7.04 2.605c-.2509.093-.4169.333-.416.601v7.789Zm1.28 0v-7.341l6.4-2.374 6.4 2.374v7.821c0 .282-.0896 6.854-6.4 6.854-6.3104 0-6.4-7.033-6.4-7.334Z" />
            <path fill-rule="evenodd" clip-rule="evenodd"
                d="M51.1688 271.463c.1064.489 1.164 5.35 5.1128 5.35 3.9488 0 5.0064-4.861 5.1128-5.35.0033-.015.0057-.026.0072-.033.0032-.038.0032-.076 0-.115v-6.63c.0003-.262-.1595-.498-.4032-.595l-4.48-1.767c-.1521-.06-.3215-.06-.4736 0l-4.48 1.767c-.2437.097-.4034.333-.4032.595v6.63c-.0063.038-.0063.077 0 .115.0015.007.0039.018.0072.033Zm5.1128 4.07c-2.8224 0-3.7376-3.795-3.84-4.282v-6.131l3.84-1.51 3.84 1.51v6.131c-.1024.493-1.0176 4.282-3.84 4.282Z" />
        </g>
        <path
            d="m85.6865 268.662 3.3662-10.459h2.4346L86.8994 271h-1.6435l.4306-2.338Zm-3.1113-10.459 3.3398 10.459.4571 2.338h-1.6524l-4.5703-12.797h2.4258Zm15.3551 8.025h-3.3311v-1.749h3.3311c.5801 0 1.0488-.094 1.4062-.282.3574-.187.6182-.445.7825-.773.17-.334.255-.715.255-1.143 0-.404-.085-.782-.255-1.134-.1643-.357-.4251-.644-.7825-.861-.3574-.217-.8261-.325-1.4062-.325H95.276V271h-2.2061v-12.797h4.8604c.9902 0 1.831.176 2.5227.527.697.346 1.227.827 1.591 1.442.363.609.544 1.307.544 2.092 0 .826-.181 1.535-.544 2.127-.364.591-.894 1.046-1.591 1.362-.6917.316-1.5325.475-2.5227.475Zm14.3447.606h2.197c-.07.838-.305 1.585-.703 2.241-.399.651-.958 1.163-1.679 1.538-.721.375-1.597.563-2.628.563-.791 0-1.503-.141-2.136-.422-.632-.287-1.174-.692-1.626-1.213-.451-.527-.796-1.163-1.037-1.907-.234-.744-.351-1.576-.351-2.496v-1.064c0-.92.12-1.752.36-2.496.246-.744.598-1.38 1.055-1.907.457-.533 1.005-.941 1.643-1.222.645-.281 1.368-.422 2.171-.422 1.02 0 1.881.188 2.584.563.703.375 1.248.893 1.635 1.556.393.662.633 1.42.721 2.276h-2.198c-.058-.551-.187-1.023-.386-1.415-.194-.393-.481-.692-.862-.897-.381-.211-.879-.316-1.494-.316-.504 0-.943.094-1.318.281-.375.188-.689.463-.941.826-.252.364-.442.812-.571 1.345-.123.527-.184 1.131-.184 1.811v1.081c0 .644.055 1.23.167 1.758.117.521.293.969.527 1.344.24.375.545.665.914.87.369.205.811.308 1.327.308.627 0 1.134-.1 1.521-.299.392-.199.688-.489.887-.87.205-.387.34-.858.405-1.415Z"
            fill="#248814" />
    </g>
    <g clip-path="url(#c)">
        <rect x="88" y="456" width="248" height="208" rx="2" fill="#E9F3E6" />
        <rect x="88" y="456" width="48" height="48" rx="2" fill="#248814" />
        <path fill-rule="evenodd" clip-rule="evenodd"
            d="M108.747 483.372c.178-1.668 1.59-2.93 3.267-2.919 1.677-.011 3.089 1.251 3.266 2.919.177 1.668-.939 3.198-2.581 3.54v4.512h-1.371v-4.512c-1.642-.342-2.758-1.872-2.581-3.54Zm1.518 1.069c.293.707.983 1.168 1.749 1.168 1.045 0 1.892-.847 1.892-1.892 0-.766-.461-1.456-1.168-1.749-.707-.293-1.521-.131-2.063.41-.541.542-.703 1.356-.41 2.063Z"
            fill="#fff" />
        <path fill-rule="evenodd" clip-rule="evenodd"
            d="M119.159 475.611v-3.661c0-3.954-3.205-7.159-7.159-7.159-3.954 0-7.159 3.205-7.159 7.159v3.661h-4.306v19.598h22.93v-19.598h-4.306Zm-12.946-3.661c0-2.068 1.103-3.979 2.893-5.012 1.791-1.034 3.997-1.034 5.788 0 1.79 1.033 2.893 2.944 2.893 5.012v3.661h-11.574v-3.661Zm-4.307 5.033v16.91h20.188v-16.91h-20.188Z"
            fill="#fff" />
        <path
            d="M152.033 483.704c0-.264-.041-.498-.123-.703-.076-.205-.214-.393-.413-.563-.199-.169-.48-.334-.844-.492-.357-.164-.814-.331-1.371-.501-.609-.187-1.172-.395-1.687-.624-.51-.234-.955-.504-1.336-.808-.381-.311-.677-.665-.888-1.064-.211-.404-.316-.87-.316-1.397 0-.522.108-.996.325-1.424.223-.428.536-.797.94-1.107.41-.317.894-.56 1.451-.73.556-.176 1.171-.264 1.845-.264.949 0 1.767.176 2.452.528.692.351 1.222.823 1.591 1.415.375.592.563 1.245.563 1.96h-2.189c0-.422-.091-.794-.272-1.117-.176-.328-.446-.585-.809-.773-.357-.187-.811-.281-1.362-.281-.522 0-.955.079-1.301.237-.346.158-.603.372-.773.642-.17.269-.255.574-.255.914 0 .24.055.46.167.659.111.193.281.375.51.545.228.164.515.319.861.466.346.146.753.287 1.222.422.708.21 1.327.445 1.854.703.527.252.967.539 1.318.861.352.322.616.688.791 1.099.176.404.264.864.264 1.38 0 .539-.108 1.025-.325 1.459-.217.427-.527.793-.932 1.098-.398.299-.879.53-1.441.694-.557.159-1.178.238-1.863.238-.616 0-1.222-.082-1.82-.246-.592-.164-1.131-.413-1.617-.747-.486-.34-.873-.762-1.16-1.266-.287-.51-.431-1.105-.431-1.784h2.206c0 .416.071.77.211 1.063.147.293.349.533.607.721.257.182.556.316.896.404.346.088.715.132 1.108.132.515 0 .946-.073 1.292-.22.351-.146.615-.351.791-.615.175-.264.263-.568.263-.914Zm9.827 1.055v-7.269h2.127V487h-2.004l-.123-2.241Zm.299-1.978.712-.017c0 .638-.071 1.227-.211 1.766-.141.533-.358.999-.651 1.398-.293.392-.668.7-1.125.923-.457.216-1.005.325-1.643.325-.463 0-.888-.068-1.275-.202-.386-.135-.72-.343-1.002-.624-.275-.282-.489-.648-.641-1.099-.152-.451-.229-.99-.229-1.617v-6.144h2.118v6.161c0 .346.042.636.124.87.082.229.193.414.334.554.14.141.304.24.492.299.187.059.386.088.597.088.604 0 1.078-.117 1.424-.352.352-.24.601-.562.747-.966.153-.405.229-.859.229-1.363Zm4.158-9.281h2.118v11.47l-.202 2.03h-1.916v-13.5Zm8.323 8.657v.185c0 .703-.079 1.35-.237 1.942-.153.586-.387 1.096-.704 1.529-.31.434-.697.771-1.16 1.011-.457.235-.987.352-1.591.352-.591 0-1.107-.112-1.546-.334-.44-.223-.809-.539-1.108-.949-.293-.411-.53-.9-.712-1.468-.181-.569-.31-1.196-.386-1.881v-.589c.076-.691.205-1.318.386-1.881.182-.568.419-1.057.712-1.468.299-.416.665-.735 1.099-.958.439-.222.952-.334 1.538-.334.609 0 1.145.118 1.608.352.469.234.859.568 1.169 1.002.311.428.542.937.695 1.529.158.592.237 1.245.237 1.96Zm-2.118.185v-.185c0-.428-.035-.829-.106-1.204-.07-.381-.187-.715-.351-1.002-.159-.287-.375-.513-.651-.677-.269-.17-.606-.254-1.01-.254-.375 0-.698.064-.967.193-.27.129-.495.305-.677.527-.182.223-.325.481-.431.774-.099.293-.167.609-.202.949v1.591c.053.439.164.843.334 1.213.176.363.422.656.738.879.317.216.724.325 1.222.325.393 0 .724-.079.993-.238.27-.158.484-.378.642-.659.164-.287.281-.621.351-1.002.077-.381.115-.791.115-1.23Zm6.161-2.821V487h-2.118v-9.51h1.995l.123 2.031Zm-.378 2.373-.685-.009c.006-.674.1-1.292.281-1.855.188-.562.445-1.046.774-1.45.334-.404.732-.715 1.195-.932.463-.222.978-.334 1.547-.334.457 0 .87.065 1.239.194.375.123.694.325.958.606.27.282.475.648.615 1.099.141.445.211.993.211 1.643V487h-2.127v-6.152c0-.457-.067-.818-.202-1.081-.129-.27-.319-.46-.571-.572-.246-.117-.554-.175-.923-.175-.363 0-.688.076-.976.228-.287.152-.53.36-.729.624-.193.264-.343.568-.448.914-.106.346-.159.715-.159 1.108Zm12.64 5.282c-.703 0-1.339-.114-1.908-.343-.562-.234-1.042-.56-1.441-.976-.392-.416-.694-.905-.905-1.467-.211-.563-.317-1.169-.317-1.82v-.351c0-.744.109-1.418.326-2.022.216-.603.518-1.119.905-1.547.387-.433.844-.764 1.371-.993.527-.228 1.099-.343 1.714-.343.68 0 1.274.115 1.784.343.51.229.932.551 1.266.967.339.41.591.899.756 1.468.169.568.254 1.195.254 1.881v.905h-7.347v-1.521h5.256v-.167c-.012-.38-.088-.738-.229-1.072-.135-.334-.343-.603-.624-.808-.281-.206-.656-.308-1.125-.308-.352 0-.665.076-.94.228-.27.147-.495.361-.677.642-.182.281-.322.621-.422 1.02-.094.392-.141.835-.141 1.327v.351c0 .416.056.803.167 1.16.118.352.287.66.51.923.223.264.492.472.809.624.316.147.676.22 1.081.22.51 0 .964-.102 1.362-.308.399-.205.744-.495 1.037-.87l1.116 1.081c-.205.299-.471.586-.799.862-.329.269-.73.489-1.205.659-.468.17-1.013.255-1.634.255Zm9.967-9.686v1.547h-5.361v-1.547h5.361Zm-3.814-2.329h2.118v9.211c0 .293.041.519.123.677.088.152.208.255.36.307.153.053.331.08.536.08.147 0 .287-.009.422-.027.135-.017.243-.035.325-.053l.009 1.618c-.176.052-.381.099-.615.14-.229.041-.492.062-.791.062-.486 0-.917-.085-1.292-.255-.375-.176-.668-.46-.879-.853-.211-.392-.316-.914-.316-1.564v-9.343Z"
            fill="#248814" />
    </g>
    <g clip-path="url(#d)">
        <rect x="384" y="456" width="248" height="208" rx="2" fill="#E9F3E6" />
        <rect x="384" y="456" width="48" height="48" rx="2" fill="#248814" />
        <path fill-rule="evenodd" clip-rule="evenodd"
            d="M404.747 483.372c.178-1.668 1.59-2.93 3.267-2.919 1.677-.011 3.089 1.251 3.266 2.919.177 1.668-.939 3.198-2.581 3.54v4.512h-1.371v-4.512c-1.642-.342-2.758-1.872-2.581-3.54Zm1.518 1.069c.293.707.983 1.168 1.749 1.168 1.045 0 1.892-.847 1.892-1.892 0-.766-.461-1.456-1.168-1.749-.707-.293-1.521-.131-2.063.41-.541.542-.703 1.356-.41 2.063Z"
            fill="#fff" />
        <path fill-rule="evenodd" clip-rule="evenodd"
            d="M415.159 475.611v-3.661c0-3.954-3.205-7.159-7.159-7.159-3.954 0-7.159 3.205-7.159 7.159v3.661h-4.306v19.598h22.93v-19.598h-4.306Zm-12.946-3.661c0-2.068 1.103-3.979 2.893-5.012 1.791-1.034 3.997-1.034 5.788 0 1.79 1.033 2.893 2.944 2.893 5.012v3.661h-11.574v-3.661Zm-4.307 5.033v16.91h20.188v-16.91h-20.188Z"
            fill="#fff" />
        <path
            d="M448.033 483.704c0-.264-.041-.498-.123-.703-.076-.205-.214-.393-.413-.563-.199-.169-.48-.334-.844-.492-.357-.164-.814-.331-1.371-.501-.609-.187-1.172-.395-1.687-.624-.51-.234-.955-.504-1.336-.808-.381-.311-.677-.665-.888-1.064-.211-.404-.316-.87-.316-1.397 0-.522.108-.996.325-1.424.223-.428.536-.797.94-1.107.41-.317.894-.56 1.451-.73.556-.176 1.171-.264 1.845-.264.949 0 1.767.176 2.452.528.692.351 1.222.823 1.591 1.415.375.592.563 1.245.563 1.96h-2.189c0-.422-.091-.794-.272-1.117-.176-.328-.446-.585-.809-.773-.357-.187-.811-.281-1.362-.281-.522 0-.955.079-1.301.237-.346.158-.603.372-.773.642-.17.269-.255.574-.255.914 0 .24.055.46.167.659.111.193.281.375.51.545.228.164.515.319.861.466.346.146.753.287 1.222.422.708.21 1.327.445 1.854.703.527.252.967.539 1.318.861.352.322.616.688.791 1.099.176.404.264.864.264 1.38 0 .539-.108 1.025-.325 1.459-.217.427-.527.793-.932 1.098-.398.299-.879.53-1.441.694-.557.159-1.178.238-1.863.238-.616 0-1.222-.082-1.82-.246-.592-.164-1.131-.413-1.617-.747-.486-.34-.873-.762-1.16-1.266-.287-.51-.431-1.105-.431-1.784h2.206c0 .416.071.77.211 1.063.147.293.349.533.607.721.257.182.556.316.896.404.346.088.715.132 1.108.132.515 0 .946-.073 1.292-.22.351-.146.615-.351.791-.615.175-.264.263-.568.263-.914Zm9.827 1.055v-7.269h2.127V487h-2.004l-.123-2.241Zm.299-1.978.712-.017c0 .638-.071 1.227-.211 1.766-.141.533-.358.999-.651 1.398-.293.392-.668.7-1.125.923-.457.216-1.005.325-1.643.325-.463 0-.888-.068-1.275-.202-.386-.135-.72-.343-1.002-.624-.275-.282-.489-.648-.641-1.099-.152-.451-.229-.99-.229-1.617v-6.144h2.118v6.161c0 .346.042.636.124.87.082.229.193.414.334.554.14.141.304.24.492.299.187.059.386.088.597.088.604 0 1.078-.117 1.424-.352.352-.24.601-.562.747-.966.153-.405.229-.859.229-1.363Zm4.158-9.281h2.118v11.47l-.202 2.03h-1.916v-13.5Zm8.323 8.657v.185c0 .703-.079 1.35-.237 1.942-.153.586-.387 1.096-.704 1.529-.31.434-.697.771-1.16 1.011-.457.235-.987.352-1.591.352-.591 0-1.107-.112-1.546-.334-.44-.223-.809-.539-1.108-.949-.293-.411-.53-.9-.712-1.468-.181-.569-.31-1.196-.386-1.881v-.589c.076-.691.205-1.318.386-1.881.182-.568.419-1.057.712-1.468.299-.416.665-.735 1.099-.958.439-.222.952-.334 1.538-.334.609 0 1.145.118 1.608.352.469.234.859.568 1.169 1.002.311.428.542.937.695 1.529.158.592.237 1.245.237 1.96Zm-2.118.185v-.185c0-.428-.035-.829-.106-1.204-.07-.381-.187-.715-.351-1.002-.159-.287-.375-.513-.651-.677-.269-.17-.606-.254-1.01-.254-.375 0-.698.064-.967.193-.27.129-.495.305-.677.527-.182.223-.325.481-.431.774-.099.293-.167.609-.202.949v1.591c.053.439.164.843.334 1.213.176.363.422.656.738.879.317.216.724.325 1.222.325.393 0 .724-.079.993-.238.27-.158.484-.378.642-.659.164-.287.281-.621.351-1.002.077-.381.115-.791.115-1.23Zm6.161-2.821V487h-2.118v-9.51h1.995l.123 2.031Zm-.378 2.373-.685-.009c.006-.674.1-1.292.281-1.855.188-.562.445-1.046.774-1.45.334-.404.732-.715 1.195-.932.463-.222.978-.334 1.547-.334.457 0 .87.065 1.239.194.375.123.694.325.958.606.27.282.475.648.615 1.099.141.445.211.993.211 1.643V487h-2.127v-6.152c0-.457-.067-.818-.202-1.081-.129-.27-.319-.46-.571-.572-.246-.117-.554-.175-.923-.175-.363 0-.688.076-.976.228-.287.152-.53.36-.729.624-.193.264-.343.568-.448.914-.106.346-.159.715-.159 1.108Zm12.64 5.282c-.703 0-1.339-.114-1.908-.343-.562-.234-1.042-.56-1.441-.976-.392-.416-.694-.905-.905-1.467-.211-.563-.317-1.169-.317-1.82v-.351c0-.744.109-1.418.326-2.022.216-.603.518-1.119.905-1.547.387-.433.844-.764 1.371-.993.527-.228 1.099-.343 1.714-.343.68 0 1.274.115 1.784.343.51.229.932.551 1.266.967.339.41.591.899.756 1.468.169.568.254 1.195.254 1.881v.905h-7.347v-1.521h5.256v-.167c-.012-.38-.088-.738-.229-1.072-.135-.334-.343-.603-.624-.808-.281-.206-.656-.308-1.125-.308-.352 0-.665.076-.94.228-.27.147-.495.361-.677.642-.182.281-.322.621-.422 1.02-.094.392-.141.835-.141 1.327v.351c0 .416.056.803.167 1.16.118.352.287.66.51.923.223.264.492.472.809.624.316.147.676.22 1.081.22.51 0 .964-.102 1.362-.308.399-.205.744-.495 1.037-.87l1.116 1.081c-.205.299-.471.586-.799.862-.329.269-.73.489-1.205.659-.468.17-1.013.255-1.634.255Zm9.967-9.686v1.547h-5.361v-1.547h5.361Zm-3.814-2.329h2.118v9.211c0 .293.041.519.123.677.088.152.208.255.36.307.153.053.331.08.536.08.147 0 .287-.009.422-.027.135-.017.243-.035.325-.053l.009 1.618c-.176.052-.381.099-.615.14-.229.041-.492.062-.791.062-.486 0-.917-.085-1.292-.255-.375-.176-.668-.46-.879-.853-.211-.392-.316-.914-.316-1.564v-9.343Z"
            fill="#248814" />
    </g>
    <g clip-path="url(#e)">
        <rect x="57" y="321" width="606" height="366" rx="1" stroke="#DA6912" stroke-width="2" stroke-dasharray="5" />
        <path d="M336 326c0-1.105.895-2 2-2h44c1.105 0 2 .895 2 2v44c0 1.105-.895 2-2 2h-44c-1.105 0-2-.895-2-2v-44Z"
            fill="#DA6912" />
        <path fill-rule="evenodd" clip-rule="evenodd"
            d="m356.543 336.041.914.792 2.543-3.035v5.659h1.2v-5.66l2.543 3.036.914-.792-4.057-4.841-4.057 4.841Zm10.657 5.855H366v-1.221h-1.2v1.332c-.188-.068-.389-.113-.6-.113h-1.8v-1.219h-1.2v1.219h-2.4v-1.219h-1.2v1.219h-1.8c-.211 0-.412.045-.6.113v-1.332H354v1.219h-1.2v1.221h1.31c-.067.191-.11.393-.11.609v1.829h-1.2v1.219h1.2v2.44h-1.2v1.22h1.2v1.829c.002.208.039.414.11.61h-1.31v1.22h1.2v1.219h1.2v-1.332c.188.069.389.113.6.113h1.8v1.219h1.2v-1.219h2.4v1.219h1.2v-1.219h1.8c.205-.002.408-.04.6-.113v1.332h1.2v-1.219h1.2v-1.22h-1.31c.067-.191.11-.395.11-.61v-1.829h1.2v-1.219H366v-2.439h1.2v-1.22H366v-1.828c0-.215-.043-.418-.11-.61h1.31v-1.22Zm-2.4 1.83v8.535c0 .337-.27.61-.6.61h-8.4c-.33 0-.6-.274-.6-.61v-8.535c0-.338.27-.61.6-.61h8.4c.334.003.602.276.6.61Zm-3.6 18.477v-5.673H360v5.673l-2.543-3.035-.914.792 4.057 4.84 4.057-4.84-.914-.792-2.543 3.036v-.001Zm-11.202-14.21-2.987-2.584.778-.929 4.765 4.124-4.765 4.122-.778-.929 2.987-2.584H343.2v-1.22h6.798Zm26.802 0h-6.798l2.987-2.584-.778-.929-4.765 4.124 4.765 4.122.778-.929-2.987-2.584h6.798v-1.22Z"
            fill="#fff" />
        <path
            d="M287.284 384.908 283.461 396h-2.312l4.817-12.797h1.476l-.158 1.705ZM290.483 396l-3.832-11.092-.167-1.705h1.486L292.804 396h-2.321Zm-.184-4.746v1.749h-6.961v-1.749h6.961Zm9.493 2.505v-7.269h2.127V396h-2.004l-.123-2.241Zm.298-1.978.712-.017c0 .638-.07 1.227-.211 1.766-.14.533-.357.999-.65 1.398-.293.392-.668.7-1.125.923-.457.216-1.005.325-1.644.325-.462 0-.887-.068-1.274-.202-.387-.135-.721-.343-1.002-.624-.275-.282-.489-.648-.642-1.099-.152-.451-.228-.99-.228-1.617v-6.144h2.118v6.161c0 .346.041.636.123.87.082.229.194.414.334.554.141.141.305.24.492.299.188.059.387.088.598.088.604 0 1.078-.117 1.424-.352.351-.24.6-.562.747-.966.152-.405.228-.859.228-1.363Zm8.509-5.291v1.547h-5.362v-1.547h5.362Zm-3.815-2.329h2.119v9.211c0 .293.041.519.123.677.087.152.208.255.36.307.152.053.331.08.536.08.147 0 .287-.009.422-.027.135-.017.243-.035.325-.053l.009 1.618c-.176.052-.381.099-.615.14-.229.041-.492.062-.791.062-.487 0-.917-.085-1.292-.255-.375-.176-.668-.46-.879-.853-.211-.392-.317-.914-.317-1.564v-9.343Zm4.984 7.19v-.203c0-.685.1-1.321.299-1.907.199-.592.487-1.104.862-1.538.38-.439.843-.779 1.388-1.019.551-.246 1.172-.37 1.863-.37.698 0 1.319.124 1.864.37.551.24 1.016.58 1.397 1.019.381.434.671.946.87 1.538.2.586.299 1.222.299 1.907v.203c0 .685-.099 1.321-.299 1.907-.199.586-.489 1.098-.87 1.538-.381.433-.844.773-1.388 1.019-.545.241-1.164.361-1.855.361-.697 0-1.321-.12-1.872-.361-.545-.246-1.008-.586-1.389-1.019-.381-.44-.671-.952-.87-1.538-.199-.586-.299-1.222-.299-1.907Zm2.119-.203v.203c0 .427.043.832.131 1.212.088.381.226.715.413 1.002.188.288.428.513.721.677.293.164.642.246 1.046.246.393 0 .732-.082 1.02-.246.293-.164.533-.389.72-.677.188-.287.325-.621.413-1.002.094-.38.141-.785.141-1.212v-.203c0-.421-.047-.82-.141-1.195-.088-.381-.228-.718-.422-1.011-.187-.293-.427-.521-.72-.685-.287-.17-.63-.255-1.029-.255-.398 0-.744.085-1.037.255-.287.164-.524.392-.712.685-.187.293-.325.63-.413 1.011-.088.375-.131.774-.131 1.195Zm20.224 1.556c0-.264-.041-.498-.123-.703-.076-.205-.214-.393-.413-.563-.199-.169-.48-.334-.844-.492-.357-.164-.814-.331-1.371-.501-.609-.187-1.172-.395-1.687-.624-.51-.234-.955-.504-1.336-.808-.381-.311-.677-.665-.888-1.064-.211-.404-.316-.87-.316-1.397 0-.522.108-.996.325-1.424.223-.428.536-.797.94-1.107.411-.317.894-.56 1.451-.73.556-.176 1.172-.264 1.845-.264.95 0 1.767.176 2.452.528.692.351 1.222.823 1.591 1.415.375.592.563 1.245.563 1.96h-2.189c0-.422-.09-.794-.272-1.117-.176-.328-.445-.585-.809-.773-.357-.187-.811-.281-1.362-.281-.522 0-.955.079-1.301.237-.346.158-.603.372-.773.642-.17.269-.255.574-.255.914 0 .24.056.46.167.659.111.193.281.375.51.545.228.164.515.319.861.466.346.146.753.287 1.222.422.709.21 1.327.445 1.854.703.527.252.967.539 1.318.861.352.322.616.688.791 1.099.176.404.264.864.264 1.38 0 .539-.108 1.025-.325 1.459-.217.427-.527.793-.932 1.098-.398.299-.879.53-1.441.694-.557.159-1.178.238-1.863.238-.616 0-1.222-.082-1.82-.246-.591-.164-1.131-.413-1.617-.747-.486-.34-.873-.762-1.16-1.266-.287-.51-.431-1.105-.431-1.784h2.206c0 .416.071.77.211 1.063.147.293.349.533.607.721.258.182.556.316.896.404.346.088.715.132 1.108.132.515 0 .946-.073 1.292-.22.351-.146.615-.351.791-.615.175-.264.263-.568.263-.914Zm7.99 1.784c.346 0 .656-.067.932-.202.281-.14.507-.334.677-.58.175-.246.272-.53.29-.852h1.995c-.012.615-.194 1.174-.545 1.678-.352.504-.818.906-1.398 1.204-.58.293-1.221.44-1.924.44-.727 0-1.36-.123-1.899-.369-.539-.252-.987-.598-1.345-1.037-.357-.44-.627-.947-.808-1.521-.176-.574-.264-1.189-.264-1.846v-.307c0-.657.088-1.272.264-1.846.181-.58.451-1.09.808-1.529.358-.44.806-.783 1.345-1.029.539-.252 1.169-.378 1.89-.378.761 0 1.429.153 2.004.457.574.299 1.025.718 1.353 1.257.334.534.507 1.155.519 1.864H342c-.018-.352-.106-.668-.264-.95-.152-.287-.369-.515-.65-.685-.276-.17-.607-.255-.994-.255-.427 0-.782.088-1.063.264-.281.17-.501.404-.659.703-.158.293-.273.624-.343.993-.064.363-.097.741-.097 1.134v.307c0 .393.033.774.097 1.143s.176.7.334.993c.164.287.387.519.668.694.281.17.639.255 1.072.255Zm11.031-.395v-4.535c0-.34-.061-.633-.185-.879-.123-.246-.31-.437-.562-.572-.246-.134-.557-.202-.932-.202-.345 0-.644.059-.896.176-.252.117-.448.275-.589.475-.141.199-.211.424-.211.676h-2.109c0-.375.09-.738.272-1.089.182-.352.445-.665.791-.941.346-.275.759-.492 1.239-.65.481-.158 1.02-.238 1.618-.238.714 0 1.347.121 1.898.361.557.24.993.603 1.31 1.09.322.48.483 1.084.483 1.81v4.228c0 .433.029.823.088 1.169.064.34.155.635.272.887V396h-2.171c-.099-.229-.178-.519-.237-.87-.053-.358-.079-.703-.079-1.037Zm.308-3.876.017 1.309h-1.52c-.393 0-.739.038-1.037.115-.299.07-.548.175-.747.316-.2.141-.349.311-.449.51-.099.199-.149.425-.149.677 0 .252.058.483.176.694.117.205.287.366.509.483.229.117.504.176.827.176.433 0 .811-.088 1.133-.264.329-.181.586-.401.774-.659.187-.263.287-.512.299-.747l.685.941c-.07.24-.19.498-.36.773-.17.275-.393.539-.668.791-.27.246-.595.448-.976.606-.375.159-.808.238-1.3.238-.622 0-1.175-.123-1.662-.369-.486-.252-.867-.589-1.142-1.011-.276-.428-.413-.911-.413-1.45 0-.504.093-.95.281-1.336.193-.393.475-.721.844-.985.375-.263.832-.463 1.371-.597.539-.141 1.154-.211 1.846-.211h1.661Zm6.451-7.717V396h-2.127v-13.5h2.127Zm4.738 3.99V396h-2.127v-9.51h2.127Zm-2.267-2.496c0-.322.105-.589.316-.8.217-.216.516-.325.897-.325.375 0 .671.109.887.325.217.211.325.478.325.8 0 .317-.108.58-.325.791-.216.211-.512.317-.887.317-.381 0-.68-.106-.897-.317-.211-.211-.316-.474-.316-.791Zm6.838 4.527V396h-2.118v-9.51h1.995l.123 2.031Zm-.378 2.373-.685-.009c.006-.674.099-1.292.281-1.855.187-.562.445-1.046.773-1.45.334-.404.733-.715 1.196-.932.463-.222.978-.334 1.547-.334.457 0 .87.065 1.239.194.375.123.694.325.958.606.269.282.474.648.615 1.099.141.445.211.993.211 1.643V396h-2.127v-6.152c0-.457-.067-.818-.202-1.081-.129-.27-.319-.46-.571-.572-.246-.117-.554-.175-.923-.175-.363 0-.689.076-.976.228-.287.152-.53.36-.729.624-.194.264-.343.568-.449.914-.105.346-.158.715-.158 1.108Zm14.538-4.404h1.925v9.246c0 .856-.182 1.582-.545 2.18-.363.598-.87 1.052-1.521 1.362-.65.317-1.403.475-2.258.475-.364 0-.768-.053-1.213-.158-.44-.106-.868-.276-1.284-.51-.41-.229-.752-.53-1.028-.905l.993-1.248c.34.404.715.7 1.125.887.41.188.841.282 1.292.282.487 0 .9-.091 1.24-.273.345-.176.612-.436.799-.782.188-.346.282-.768.282-1.266v-7.136l.193-2.154Zm-6.46 4.861v-.185c0-.721.088-1.377.264-1.969.175-.597.427-1.11.756-1.538.328-.433.726-.764 1.195-.993.469-.234.999-.352 1.591-.352.615 0 1.139.112 1.573.334.439.223.806.542 1.099.958.293.411.521.903.685 1.477.17.568.296 1.201.378 1.898v.589c-.076.68-.205 1.301-.387 1.864-.181.562-.422 1.048-.72 1.459-.299.41-.668.726-1.108.949-.433.222-.946.334-1.538.334-.58 0-1.104-.12-1.573-.361-.463-.24-.861-.577-1.195-1.01-.329-.434-.581-.944-.756-1.53-.176-.591-.264-1.233-.264-1.924Zm2.118-.185v.185c0 .433.041.837.123 1.212.088.375.22.707.396.994.181.281.41.504.685.668.282.158.613.237.993.237.498 0 .906-.106 1.222-.316.322-.211.568-.496.738-.853.176-.363.299-.768.37-1.213v-1.591c-.036-.345-.109-.668-.22-.967-.106-.298-.249-.559-.431-.782-.181-.228-.41-.404-.685-.527-.276-.129-.601-.193-.976-.193-.381 0-.712.082-.993.246-.281.164-.513.389-.694.676-.176.287-.308.621-.396 1.002-.088.381-.132.788-.132 1.222Zm23.284-1.705v4.887c-.182.24-.466.504-.853.791-.381.281-.888.524-1.52.729-.633.205-1.421.308-2.365.308-.802 0-1.538-.135-2.206-.405-.668-.275-1.245-.676-1.731-1.204-.481-.527-.853-1.169-1.116-1.924-.264-.762-.396-1.629-.396-2.602v-.888c0-.966.12-1.828.36-2.584.246-.761.598-1.406 1.055-1.933.457-.528 1.008-.926 1.652-1.196.651-.275 1.386-.413 2.206-.413 1.049 0 1.916.176 2.602.528.691.345 1.225.826 1.6 1.441.375.615.612 1.318.712 2.109h-2.163c-.07-.445-.208-.843-.413-1.195-.199-.351-.486-.627-.861-.826-.369-.205-.85-.308-1.441-.308-.51 0-.958.097-1.345.29-.387.194-.709.478-.967.853-.252.375-.442.832-.571 1.371-.129.539-.194 1.154-.194 1.846v.905c0 .703.074 1.327.22 1.872.153.545.369 1.005.651 1.38.287.375.635.659 1.045.853.411.187.874.281 1.389.281.504 0 .917-.041 1.239-.123.323-.088.578-.191.765-.308.193-.123.343-.24.448-.351v-2.541h-2.663v-1.643h4.861Zm4.509-1.16V396h-2.118v-9.51h2.021l.097 1.811Zm2.909-1.872-.017 1.968c-.129-.023-.27-.041-.422-.052-.147-.012-.293-.018-.44-.018-.363 0-.682.053-.958.158-.275.1-.507.246-.694.44-.182.187-.322.416-.422.685-.1.27-.158.572-.176.906l-.483.035c0-.598.058-1.152.176-1.661.117-.51.293-.958.527-1.345.24-.387.539-.689.896-.905.364-.217.783-.326 1.257-.326.129 0 .267.012.413.036.153.023.267.049.343.079Zm.844 4.922v-.203c0-.685.1-1.321.299-1.907.199-.592.487-1.104.862-1.538.38-.439.843-.779 1.388-1.019.551-.246 1.172-.37 1.864-.37.697 0 1.318.124 1.863.37.551.24 1.016.58 1.397 1.019.381.434.671.946.87 1.538.2.586.299 1.222.299 1.907v.203c0 .685-.099 1.321-.299 1.907-.199.586-.489 1.098-.87 1.538-.381.433-.843.773-1.388 1.019-.545.241-1.163.361-1.855.361-.697 0-1.321-.12-1.872-.361-.545-.246-1.008-.586-1.389-1.019-.38-.44-.671-.952-.87-1.538-.199-.586-.299-1.222-.299-1.907Zm2.119-.203v.203c0 .427.044.832.131 1.212.088.381.226.715.414 1.002.187.288.427.513.72.677.293.164.642.246 1.046.246.393 0 .733-.082 1.02-.246.293-.164.533-.389.72-.677.188-.287.326-.621.413-1.002.094-.38.141-.785.141-1.212v-.203c0-.421-.047-.82-.141-1.195-.087-.381-.228-.718-.421-1.011-.188-.293-.428-.521-.721-.685-.287-.17-.63-.255-1.028-.255-.399 0-.745.085-1.038.255-.287.164-.524.392-.711.685-.188.293-.326.63-.414 1.011-.087.375-.131.774-.131 1.195Zm14.37 2.611v-7.269h2.127V396h-2.004l-.123-2.241Zm.299-1.978.712-.017c0 .638-.07 1.227-.211 1.766-.141.533-.357.999-.65 1.398-.293.392-.668.7-1.125.923-.457.216-1.005.325-1.644.325-.463 0-.888-.068-1.274-.202-.387-.135-.721-.343-1.002-.624-.276-.282-.489-.648-.642-1.099-.152-.451-.228-.99-.228-1.617v-6.144h2.118v6.161c0 .346.041.636.123.87.082.229.193.414.334.554.141.141.305.24.492.299.188.059.387.088.598.088.603 0 1.078-.117 1.424-.352.351-.24.6-.562.747-.966.152-.405.228-.859.228-1.363Zm6.276-3.463v11.338h-2.118V386.49h1.951l.167 1.828Zm6.196 2.839v.185c0 .691-.082 1.333-.246 1.925-.158.586-.395 1.098-.712 1.538-.31.433-.694.77-1.151 1.01-.457.241-.984.361-1.582.361-.592 0-1.11-.109-1.556-.325-.439-.223-.811-.537-1.116-.941-.305-.404-.551-.879-.738-1.424-.182-.55-.311-1.154-.387-1.81v-.712c.076-.697.205-1.33.387-1.899.187-.568.433-1.057.738-1.467.305-.41.677-.727 1.116-.95.44-.222.952-.334 1.538-.334.598 0 1.128.118 1.591.352.463.229.853.557 1.169.984.317.422.554.932.712 1.53.158.591.237 1.251.237 1.977Zm-2.118.185v-.185c0-.439-.041-.846-.123-1.221-.082-.381-.211-.715-.387-1.002-.175-.288-.401-.51-.676-.668-.27-.164-.595-.246-.976-.246-.375 0-.697.064-.967.193-.269.123-.495.296-.676.518-.182.223-.323.484-.422.783-.1.293-.17.612-.211.958v1.705c.07.422.19.808.36 1.16.17.351.41.633.721.844.316.205.721.307 1.213.307.381 0 .706-.082.975-.246.27-.164.49-.389.659-.677.176-.293.305-.629.387-1.01.082-.381.123-.785.123-1.213Z"
            fill="#DA6912" />
    </g>
    <g clip-path="url(#f)">
        <rect x="73" y="417" width="278" height="262" rx="1" stroke="#6BA6D9" stroke-width="2" stroke-dasharray="5" />
        <path
            d="M146.284 429.908 142.461 441h-2.312l4.817-12.797h1.476l-.158 1.705ZM149.483 441l-3.832-11.092-.167-1.705h1.486L151.804 441h-2.321Zm-.184-4.746v1.749h-6.961v-1.749h6.961Zm6.531 3.067 2.329-7.831h2.197l-3.305 9.51h-1.371l.15-1.679Zm-1.784-7.831 2.373 7.866.114 1.644h-1.371l-3.323-9.51h2.207Zm12.99 7.603v-4.535c0-.34-.061-.633-.184-.879s-.311-.437-.563-.572c-.246-.134-.556-.202-.931-.202-.346 0-.645.059-.897.176-.252.117-.448.275-.589.475-.14.199-.211.424-.211.676h-2.109c0-.375.091-.738.272-1.089.182-.352.446-.665.791-.941.346-.275.759-.492 1.24-.65.48-.158 1.019-.238 1.617-.238.715 0 1.348.121 1.898.361.557.24.993.603 1.31 1.09.322.48.483 1.084.483 1.81v4.228c0 .433.03.823.088 1.169.065.34.155.635.273.887V441h-2.171c-.1-.229-.179-.519-.238-.87-.052-.358-.079-.703-.079-1.037Zm.308-3.876.018 1.309h-1.521c-.393 0-.738.038-1.037.115-.299.07-.548.175-.747.316-.199.141-.349.311-.448.51-.1.199-.15.425-.15.677 0 .252.059.483.176.694.117.205.287.366.51.483.228.117.504.176.826.176.433 0 .811-.088 1.134-.264.328-.181.586-.401.773-.659.188-.263.287-.512.299-.747l.685.941c-.07.24-.19.498-.36.773-.17.275-.392.539-.668.791-.269.246-.595.448-.975.606-.375.159-.809.238-1.301.238-.621 0-1.175-.123-1.661-.369-.487-.252-.868-.589-1.143-1.011-.275-.428-.413-.911-.413-1.45 0-.504.094-.95.281-1.336.194-.393.475-.721.844-.985.375-.263.832-.463 1.371-.597.539-.141 1.154-.211 1.846-.211h1.661Zm6.452-3.727V441h-2.127v-9.51h2.127Zm-2.268-2.496c0-.322.106-.589.317-.8.216-.216.515-.325.896-.325.375 0 .671.109.888.325.217.211.325.478.325.8 0 .317-.108.58-.325.791-.217.211-.513.317-.888.317-.381 0-.68-.106-.896-.317-.211-.211-.317-.474-.317-.791Zm7.006-1.494V441h-2.127v-13.5h2.127Zm7.831 11.593v-4.535c0-.34-.061-.633-.184-.879s-.311-.437-.563-.572c-.246-.134-.556-.202-.931-.202-.346 0-.645.059-.897.176-.252.117-.448.275-.589.475-.14.199-.211.424-.211.676h-2.109c0-.375.091-.738.272-1.089.182-.352.446-.665.791-.941.346-.275.759-.492 1.24-.65.48-.158 1.019-.238 1.617-.238.715 0 1.347.121 1.898.361.557.24.993.603 1.31 1.09.322.48.483 1.084.483 1.81v4.228c0 .433.029.823.088 1.169.065.34.155.635.273.887V441h-2.171c-.1-.229-.179-.519-.238-.87-.052-.358-.079-.703-.079-1.037Zm.308-3.876.017 1.309h-1.52c-.393 0-.738.038-1.037.115-.299.07-.548.175-.747.316-.199.141-.349.311-.448.51-.1.199-.15.425-.15.677 0 .252.059.483.176.694.117.205.287.366.51.483.228.117.504.176.826.176.433 0 .811-.088 1.134-.264.328-.181.586-.401.773-.659.188-.263.287-.512.299-.747l.685.941c-.07.24-.19.498-.36.773-.17.275-.393.539-.668.791-.269.246-.595.448-.975.606-.376.159-.809.238-1.301.238-.621 0-1.175-.123-1.661-.369-.487-.252-.868-.589-1.143-1.011-.275-.428-.413-.911-.413-1.45 0-.504.094-.95.281-1.336.194-.393.475-.721.844-.985.375-.263.832-.463 1.371-.597.539-.141 1.154-.211 1.846-.211h1.661Zm4.193-7.717h2.118v11.47l-.202 2.03h-1.916v-13.5Zm8.323 8.657v.185c0 .703-.079 1.35-.237 1.942-.153.586-.387 1.096-.703 1.529-.311.434-.698.771-1.161 1.011-.457.235-.987.352-1.59.352-.592 0-1.108-.112-1.547-.334-.44-.223-.809-.539-1.108-.949-.293-.411-.53-.9-.712-1.468-.181-.569-.31-1.196-.386-1.881v-.589c.076-.691.205-1.318.386-1.881.182-.568.419-1.057.712-1.468.299-.416.665-.735 1.099-.958.439-.222.952-.334 1.538-.334.609 0 1.146.118 1.608.352.469.234.859.568 1.169 1.002.311.428.542.937.695 1.529.158.592.237 1.245.237 1.96Zm-2.118.185v-.185c0-.428-.035-.829-.106-1.204-.07-.381-.187-.715-.351-1.002-.158-.287-.375-.513-.651-.677-.269-.17-.606-.254-1.01-.254-.375 0-.698.064-.967.193-.27.129-.495.305-.677.527-.181.223-.325.481-.43.774-.1.293-.167.609-.203.949v1.591c.053.439.164.843.334 1.213.176.363.422.656.739.879.316.216.723.325 1.221.325.393 0 .724-.079.993-.238.27-.158.484-.378.642-.659.164-.287.281-.621.352-1.002.076-.381.114-.791.114-1.23Zm6.329-4.852V441h-2.127v-9.51h2.127Zm-2.268-2.496c0-.322.105-.589.316-.8.217-.216.516-.325.897-.325.375 0 .671.109.888.325.216.211.325.478.325.8 0 .317-.109.58-.325.791-.217.211-.513.317-.888.317-.381 0-.68-.106-.897-.317-.211-.211-.316-.474-.316-.791Zm7.005-1.494V441h-2.126v-13.5h2.126Zm4.738 3.99V441h-2.127v-9.51h2.127Zm-2.267-2.496c0-.322.105-.589.316-.8.217-.216.516-.325.897-.325.375 0 .671.109.887.325.217.211.326.478.326.8 0 .317-.109.58-.326.791-.216.211-.512.317-.887.317-.381 0-.68-.106-.897-.317-.211-.211-.316-.474-.316-.791Zm9.097 2.496v1.547h-5.361v-1.547h5.361Zm-3.814-2.329h2.118v9.211c0 .293.041.519.123.677.088.152.208.255.36.307.153.053.331.08.536.08.147 0 .287-.009.422-.027.135-.017.243-.035.325-.053l.009 1.618c-.176.052-.381.099-.615.14-.229.041-.492.062-.791.062-.486 0-.917-.085-1.292-.255-.375-.176-.668-.46-.879-.853-.211-.392-.316-.914-.316-1.564v-9.343Zm8.359 10.802 2.584-8.473h2.267l-3.814 10.96c-.088.235-.202.489-.343.765-.141.275-.325.536-.554.782-.222.252-.501.454-.835.607-.334.158-.738.237-1.213.237-.187 0-.369-.018-.545-.053-.169-.029-.331-.061-.483-.097l-.009-1.617c.059.006.129.012.211.018.088.006.158.009.211.009.352 0 .645-.044.879-.132.234-.082.425-.217.571-.405.153-.187.282-.439.387-.755l.686-1.846Zm-1.459-8.473 2.258 7.119.378 2.233-1.467.378-3.455-9.73h2.286Zm21.464 7.761V441h-8.886v-1.749h8.886Zm-.202-9.686L236.186 441h-1.476v-1.397l7.892-11.4h1.451v1.362Zm-.818-1.362v1.758h-8.473v-1.758h8.473Zm2.277 8.148v-.203c0-.685.1-1.321.299-1.907.199-.592.486-1.104.861-1.538.381-.439.844-.779 1.389-1.019.551-.246 1.172-.37 1.863-.37.697 0 1.319.124 1.863.37.551.24 1.017.58 1.398 1.019.381.434.671.946.87 1.538.199.586.299 1.222.299 1.907v.203c0 .685-.1 1.321-.299 1.907-.199.586-.489 1.098-.87 1.538-.381.433-.844.773-1.389 1.019-.545.241-1.163.361-1.854.361-.697 0-1.321-.12-1.872-.361-.545-.246-1.008-.586-1.389-1.019-.381-.44-.671-.952-.87-1.538-.199-.586-.299-1.222-.299-1.907Zm2.118-.203v.203c0 .427.044.832.132 1.212.088.381.226.715.413 1.002.188.288.428.513.721.677.293.164.641.246 1.046.246.392 0 .732-.082 1.019-.246.293-.164.534-.389.721-.677.188-.287.325-.621.413-1.002.094-.38.141-.785.141-1.212v-.203c0-.421-.047-.82-.141-1.195-.088-.381-.228-.718-.422-1.011-.187-.293-.427-.521-.72-.685-.288-.17-.63-.255-1.029-.255-.398 0-.744.085-1.037.255-.287.164-.524.392-.712.685-.187.293-.325.63-.413 1.011-.088.375-.132.774-.132 1.195Zm10.75-2.627V441h-2.118v-9.51h1.995l.123 2.031Zm-.378 2.373-.686-.009c.006-.674.1-1.292.282-1.855.187-.562.445-1.046.773-1.45.334-.404.733-.715 1.195-.932.463-.222.979-.334 1.547-.334.457 0 .87.065 1.24.194.375.123.694.325.958.606.269.282.474.648.615 1.099.14.445.211.993.211 1.643V441h-2.127v-6.152c0-.457-.068-.818-.202-1.081-.129-.27-.32-.46-.572-.572-.246-.117-.553-.175-.923-.175-.363 0-.688.076-.975.228-.287.152-.53.36-.73.624-.193.264-.342.568-.448.914-.105.346-.158.715-.158 1.108Zm12.639 5.282c-.703 0-1.339-.114-1.907-.343-.563-.234-1.043-.56-1.441-.976-.393-.416-.695-.905-.906-1.467-.211-.563-.316-1.169-.316-1.82v-.351c0-.744.108-1.418.325-2.022.217-.603.519-1.119.905-1.547.387-.433.844-.764 1.371-.993.528-.228 1.099-.343 1.714-.343.68 0 1.275.115 1.785.343.509.229.931.551 1.265.967.34.41.592.899.756 1.468.17.568.255 1.195.255 1.881v.905h-7.348v-1.521h5.256v-.167c-.012-.38-.088-.738-.228-1.072-.135-.334-.343-.603-.624-.808-.282-.206-.657-.308-1.125-.308-.352 0-.665.076-.941.228-.269.147-.495.361-.677.642-.181.281-.322.621-.422 1.02-.093.392-.14.835-.14 1.327v.351c0 .416.056.803.167 1.16.117.352.287.66.51.923.222.264.492.472.808.624.317.147.677.22 1.081.22.51 0 .964-.102 1.363-.308.398-.205.744-.495 1.037-.87l1.116 1.081c-.205.299-.472.586-.8.862-.328.269-.729.489-1.204.659-.469.17-1.014.255-1.635.255Z"
            fill="#6BA6D9" />
    </g>
    <g clip-path="url(#g)">
        <rect x="369" y="417" width="278" height="262" rx="1" stroke="#6BA6D9" stroke-width="2" stroke-dasharray="5" />
        <path
            d="M446.284 429.908 442.461 441h-2.312l4.817-12.797h1.476l-.158 1.705ZM449.483 441l-3.832-11.092-.167-1.705h1.486L451.804 441h-2.321Zm-.184-4.746v1.749h-6.961v-1.749h6.961Zm6.531 3.067 2.329-7.831h2.197l-3.305 9.51h-1.371l.15-1.679Zm-1.784-7.831 2.373 7.866.114 1.644h-1.371l-3.323-9.51h2.207Zm12.99 7.603v-4.535c0-.34-.061-.633-.184-.879s-.311-.437-.563-.572c-.246-.134-.556-.202-.931-.202-.346 0-.645.059-.897.176-.252.117-.448.275-.589.475-.14.199-.211.424-.211.676h-2.109c0-.375.091-.738.272-1.089.182-.352.446-.665.791-.941.346-.275.759-.492 1.24-.65.48-.158 1.019-.238 1.617-.238.715 0 1.348.121 1.898.361.557.24.993.603 1.31 1.09.322.48.483 1.084.483 1.81v4.228c0 .433.03.823.088 1.169.065.34.155.635.273.887V441h-2.171c-.1-.229-.179-.519-.238-.87-.052-.358-.079-.703-.079-1.037Zm.308-3.876.018 1.309h-1.521c-.393 0-.738.038-1.037.115-.299.07-.548.175-.747.316-.199.141-.349.311-.448.51-.1.199-.15.425-.15.677 0 .252.059.483.176.694.117.205.287.366.51.483.228.117.504.176.826.176.433 0 .811-.088 1.134-.264.328-.181.586-.401.773-.659.188-.263.287-.512.299-.747l.685.941c-.07.24-.19.498-.36.773-.17.275-.392.539-.668.791-.269.246-.595.448-.975.606-.375.159-.809.238-1.301.238-.621 0-1.175-.123-1.661-.369-.487-.252-.868-.589-1.143-1.011-.275-.428-.413-.911-.413-1.45 0-.504.094-.95.281-1.336.194-.393.475-.721.844-.985.375-.263.832-.463 1.371-.597.539-.141 1.154-.211 1.846-.211h1.661Zm6.452-3.727V441h-2.127v-9.51h2.127Zm-2.268-2.496c0-.322.106-.589.317-.8.216-.216.515-.325.896-.325.375 0 .671.109.888.325.217.211.325.478.325.8 0 .317-.108.58-.325.791-.217.211-.513.317-.888.317-.381 0-.68-.106-.896-.317-.211-.211-.317-.474-.317-.791Zm7.006-1.494V441h-2.127v-13.5h2.127Zm7.831 11.593v-4.535c0-.34-.061-.633-.184-.879s-.311-.437-.563-.572c-.246-.134-.556-.202-.931-.202-.346 0-.645.059-.897.176-.252.117-.448.275-.589.475-.14.199-.211.424-.211.676h-2.109c0-.375.091-.738.272-1.089.182-.352.446-.665.791-.941.346-.275.759-.492 1.24-.65.48-.158 1.019-.238 1.617-.238.715 0 1.347.121 1.898.361.557.24.993.603 1.31 1.09.322.48.483 1.084.483 1.81v4.228c0 .433.029.823.088 1.169.065.34.155.635.273.887V441h-2.171c-.1-.229-.179-.519-.238-.87-.052-.358-.079-.703-.079-1.037Zm.308-3.876.017 1.309h-1.52c-.393 0-.738.038-1.037.115-.299.07-.548.175-.747.316-.199.141-.349.311-.448.51-.1.199-.15.425-.15.677 0 .252.059.483.176.694.117.205.287.366.51.483.228.117.504.176.826.176.433 0 .811-.088 1.134-.264.328-.181.586-.401.773-.659.188-.263.287-.512.299-.747l.685.941c-.07.24-.19.498-.36.773-.17.275-.393.539-.668.791-.269.246-.595.448-.975.606-.376.159-.809.238-1.301.238-.621 0-1.175-.123-1.661-.369-.487-.252-.868-.589-1.143-1.011-.275-.428-.413-.911-.413-1.45 0-.504.094-.95.281-1.336.194-.393.475-.721.844-.985.375-.263.832-.463 1.371-.597.539-.141 1.154-.211 1.846-.211h1.661Zm4.193-7.717h2.118v11.47l-.202 2.03h-1.916v-13.5Zm8.323 8.657v.185c0 .703-.079 1.35-.237 1.942-.153.586-.387 1.096-.703 1.529-.311.434-.698.771-1.161 1.011-.457.235-.987.352-1.59.352-.592 0-1.108-.112-1.547-.334-.44-.223-.809-.539-1.108-.949-.293-.411-.53-.9-.712-1.468-.181-.569-.31-1.196-.386-1.881v-.589c.076-.691.205-1.318.386-1.881.182-.568.419-1.057.712-1.468.299-.416.665-.735 1.099-.958.439-.222.952-.334 1.538-.334.609 0 1.146.118 1.608.352.469.234.859.568 1.169 1.002.311.428.542.937.695 1.529.158.592.237 1.245.237 1.96Zm-2.118.185v-.185c0-.428-.035-.829-.106-1.204-.07-.381-.187-.715-.351-1.002-.158-.287-.375-.513-.651-.677-.269-.17-.606-.254-1.01-.254-.375 0-.698.064-.967.193-.27.129-.495.305-.677.527-.181.223-.325.481-.43.774-.1.293-.167.609-.203.949v1.591c.053.439.164.843.334 1.213.176.363.422.656.739.879.316.216.723.325 1.221.325.393 0 .724-.079.993-.238.27-.158.484-.378.642-.659.164-.287.281-.621.352-1.002.076-.381.114-.791.114-1.23Zm6.329-4.852V441h-2.127v-9.51h2.127Zm-2.268-2.496c0-.322.105-.589.316-.8.217-.216.516-.325.897-.325.375 0 .671.109.888.325.216.211.325.478.325.8 0 .317-.109.58-.325.791-.217.211-.513.317-.888.317-.381 0-.68-.106-.897-.317-.211-.211-.316-.474-.316-.791Zm7.005-1.494V441h-2.126v-13.5h2.126Zm4.738 3.99V441h-2.127v-9.51h2.127Zm-2.267-2.496c0-.322.105-.589.316-.8.217-.216.516-.325.897-.325.375 0 .671.109.887.325.217.211.326.478.326.8 0 .317-.109.58-.326.791-.216.211-.512.317-.887.317-.381 0-.68-.106-.897-.317-.211-.211-.316-.474-.316-.791Zm9.097 2.496v1.547h-5.361v-1.547h5.361Zm-3.814-2.329h2.118v9.211c0 .293.041.519.123.677.088.152.208.255.36.307.153.053.331.08.536.08.147 0 .287-.009.422-.027.135-.017.243-.035.325-.053l.009 1.618c-.176.052-.381.099-.615.14-.229.041-.492.062-.791.062-.486 0-.917-.085-1.292-.255-.375-.176-.668-.46-.879-.853-.211-.392-.316-.914-.316-1.564v-9.343Zm8.359 10.802 2.584-8.473h2.267l-3.814 10.96c-.088.235-.202.489-.343.765-.141.275-.325.536-.554.782-.222.252-.501.454-.835.607-.334.158-.738.237-1.213.237-.187 0-.369-.018-.545-.053-.169-.029-.331-.061-.483-.097l-.009-1.617c.059.006.129.012.211.018.088.006.158.009.211.009.352 0 .645-.044.879-.132.234-.082.425-.217.571-.405.153-.187.282-.439.387-.755l.686-1.846Zm-1.459-8.473 2.258 7.119.378 2.233-1.467.378-3.455-9.73h2.286Zm21.464 7.761V441h-8.886v-1.749h8.886Zm-.202-9.686L536.186 441h-1.476v-1.397l7.892-11.4h1.451v1.362Zm-.818-1.362v1.758h-8.473v-1.758h8.473Zm2.277 8.148v-.203c0-.685.1-1.321.299-1.907.199-.592.486-1.104.861-1.538.381-.439.844-.779 1.389-1.019.551-.246 1.172-.37 1.863-.37.697 0 1.319.124 1.863.37.551.24 1.017.58 1.398 1.019.381.434.671.946.87 1.538.199.586.299 1.222.299 1.907v.203c0 .685-.1 1.321-.299 1.907-.199.586-.489 1.098-.87 1.538-.381.433-.844.773-1.389 1.019-.545.241-1.163.361-1.854.361-.697 0-1.321-.12-1.872-.361-.545-.246-1.008-.586-1.389-1.019-.381-.44-.671-.952-.87-1.538-.199-.586-.299-1.222-.299-1.907Zm2.118-.203v.203c0 .427.044.832.132 1.212.088.381.226.715.413 1.002.188.288.428.513.721.677.293.164.641.246 1.046.246.392 0 .732-.082 1.019-.246.293-.164.534-.389.721-.677.188-.287.325-.621.413-1.002.094-.38.141-.785.141-1.212v-.203c0-.421-.047-.82-.141-1.195-.088-.381-.228-.718-.422-1.011-.187-.293-.427-.521-.72-.685-.288-.17-.63-.255-1.029-.255-.398 0-.744.085-1.037.255-.287.164-.524.392-.712.685-.187.293-.325.63-.413 1.011-.088.375-.132.774-.132 1.195Zm10.75-2.627V441h-2.118v-9.51h1.995l.123 2.031Zm-.378 2.373-.686-.009c.006-.674.1-1.292.282-1.855.187-.562.445-1.046.773-1.45.334-.404.733-.715 1.195-.932.463-.222.979-.334 1.547-.334.457 0 .87.065 1.24.194.375.123.694.325.958.606.269.282.474.648.615 1.099.14.445.211.993.211 1.643V441h-2.127v-6.152c0-.457-.068-.818-.202-1.081-.129-.27-.32-.46-.572-.572-.246-.117-.553-.175-.923-.175-.363 0-.688.076-.975.228-.287.152-.53.36-.73.624-.193.264-.342.568-.448.914-.105.346-.158.715-.158 1.108Zm12.639 5.282c-.703 0-1.339-.114-1.907-.343-.563-.234-1.043-.56-1.441-.976-.393-.416-.695-.905-.906-1.467-.211-.563-.316-1.169-.316-1.82v-.351c0-.744.108-1.418.325-2.022.217-.603.519-1.119.905-1.547.387-.433.844-.764 1.371-.993.528-.228 1.099-.343 1.714-.343.68 0 1.275.115 1.785.343.509.229.931.551 1.265.967.34.41.592.899.756 1.468.17.568.255 1.195.255 1.881v.905h-7.348v-1.521h5.256v-.167c-.012-.38-.088-.738-.228-1.072-.135-.334-.343-.603-.624-.808-.282-.206-.657-.308-1.125-.308-.352 0-.665.076-.941.228-.269.147-.495.361-.677.642-.181.281-.322.621-.422 1.02-.093.392-.14.835-.14 1.327v.351c0 .416.056.803.167 1.16.117.352.287.66.51.923.222.264.492.472.808.624.317.147.677.22 1.081.22.51 0 .964-.102 1.363-.308.398-.205.744-.495 1.037-.87l1.116 1.081c-.205.299-.472.586-.8.862-.328.269-.729.489-1.204.659-.469.17-1.014.255-1.635.255Z"
            fill="#6BA6D9" />
    </g>
    <g clip-path="url(#h)">
        <rect x="9" y="81" width="702" height="630" rx="1" stroke="#232F3E" stroke-width="2" />
        <rect x="8" y="80" width="48" height="48" rx="2" fill="#232F3E" />
        <path fill-rule="evenodd" clip-rule="evenodd"
            d="M43.3416 114.189H19.8173c-.594 0-1.0604-.113-1.422-.341-1.2584-.794-2.7573-2.324-2.7573-5.096 0-3.687 2.5634-4.897 4.0934-5.289.378-.098.6357-.45.6136-.841l-.0638-1.037c0-2.9675 2.043-6.1609 4.6497-7.267 1.1749-.4991 2.2598-.6979 3.2433-.6979 2.799 0 4.7749 1.606 5.6381 2.475.9515.9572 1.6944 2.182 2.2091 3.6417.1.2862.3506.4942.6508.5382.3001.045.6003-.08.7793-.3255.7446-1.0104 2.0259-1.4294 3.1869-1.0505 1.3205.4336 2.0765 1.743 2.0749 3.54-.0651.44.2328.851.6709.926 1.4973.259 4.9803 1.304 4.9803 5.44 0 4.797-4.5835 5.343-5.022 5.384h-.0009Zm.9868-12.295c-.1719-2.2644-1.3337-3.9433-3.1803-4.5496-1.3831-.452-2.8997-.2-4.0623.675-.5514-1.1863-1.26-2.2197-2.1142-3.078-2.9176-2.9356-6.9111-3.7293-10.6805-2.1305-3.2196 1.3672-5.6471 5.139-5.6455 8.8221l.0262.441c-1.782.618-4.6718 2.299-4.6718 6.677 0 3.704 2.2058 5.65 3.5198 6.48.6317.399 1.3827.593 2.2958.594h23.5612c.02 0 .0399-.001.0597-.003C45.707 115.658 50 113.977 50 108.806c0-4.077-2.8178-6.204-5.6716-6.912Z"
            fill="#E9F3E6" />
        <path
            d="M70.2842 99.9082 66.4609 111h-2.3115l4.8164-12.7969h1.4766l-.1582 1.7051ZM73.4834 111l-3.832-11.0918-.167-1.7051h1.4853L75.8037 111h-2.3203Zm-.1846-4.746v1.749h-6.9609v-1.749h6.9609Zm5.8366-2.83V111h-2.1182v-9.51h1.9951l.1231 1.934Zm-.3428 2.47-.7207-.009c0-.656.082-1.263.2461-1.82.164-.556.4043-1.04.7207-1.45.3164-.416.709-.735 1.1777-.958.4746-.228 1.0225-.343 1.6436-.343.4336 0 .8291.065 1.1865.194.3633.123.6767.319.9404.589.2695.269.4746.615.6152 1.037.1465.422.2198.931.2198 1.529V111h-2.1182v-6.152c0-.463-.0703-.827-.2109-1.09-.1348-.264-.3311-.451-.5889-.563-.2519-.117-.5537-.175-.9053-.175-.3984 0-.7382.076-1.0195.228-.2754.152-.501.36-.6768.624-.1757.264-.3046.568-.3867.914-.082.346-.123.715-.123 1.108Zm5.8974-.563-.9931.22c0-.574.0791-1.116.2373-1.626.164-.516.4013-.967.7119-1.354.3164-.392.706-.7 1.1689-.923.4629-.222.9932-.334 1.5909-.334.4863 0 .9199.068 1.3007.203.3868.129.7149.334.9844.615.2695.281.4746.647.6152 1.098.1407.446.211.985.211 1.618V111h-2.127v-6.161c0-.481-.0703-.853-.2109-1.116-.1348-.264-.3281-.446-.5801-.545-.2519-.106-.5537-.158-.9053-.158-.3281 0-.6181.061-.8701.184-.2461.117-.4541.284-.624.501-.1699.211-.2988.454-.3867.73-.082.275-.1231.574-.1231.896Zm13.5182 3.762v-4.535c0-.34-.0615-.633-.1846-.879-.123-.246-.3105-.437-.5625-.572-.2461-.134-.5566-.202-.9316-.202-.3457 0-.6445.059-.8965.176-.2519.117-.4482.275-.5889.475-.1406.199-.2109.424-.2109.676h-2.1094c0-.375.0908-.738.2725-1.089.1816-.352.4453-.665.791-.941.3457-.275.7588-.492 1.2393-.65.4804-.158 1.0195-.238 1.6171-.238.7149 0 1.3477.121 1.8985.361.5566.24.9932.603 1.3096 1.09.3222.48.4832 1.084.4832 1.81v4.228c0 .433.029.823.088 1.169.064.34.155.635.273.887V111h-2.1714c-.0996-.229-.1787-.519-.2373-.87-.0527-.358-.0791-.703-.0791-1.037Zm.3076-3.876.0176 1.309h-1.5205c-.3926 0-.7383.038-1.0371.115-.2988.07-.5479.175-.7471.316-.1992.141-.3486.311-.4482.51-.0996.199-.1494.425-.1494.677 0 .252.0585.483.1757.694.1172.205.2871.366.5098.483.2285.117.5039.176.8262.176.4336 0 .8115-.088 1.1338-.264.3281-.181.5859-.401.7734-.659.1875-.263.2871-.512.2988-.747l.6856.941c-.0703.24-.1905.498-.3604.773s-.3926.539-.6679.791c-.2696.246-.5948.448-.9756.606-.375.159-.8086.238-1.3008.238-.6211 0-1.1748-.123-1.6611-.369-.4864-.252-.8672-.589-1.1426-1.011-.2754-.428-.4131-.911-.4131-1.45 0-.504.0937-.95.2812-1.336.1934-.393.4746-.721.8438-.985.375-.263.832-.463 1.3711-.597.539-.141 1.1543-.211 1.8457-.211h1.6611Zm11.5402 4.095V111h-7.084v-1.688h7.084Zm-.193-6.503-6.17 8.191h-1.371v-1.362l6.135-8.148h1.406v1.319Zm-.817-1.319v1.688h-6.618v-1.688h6.618Zm2.312 4.861v-.203c0-.685.099-1.321.299-1.907.199-.592.486-1.104.861-1.538.381-.439.844-.779 1.389-1.019.55-.246 1.172-.37 1.863-.37.697 0 1.318.124 1.863.37.551.24 1.017.58 1.398 1.019.381.434.671.946.87 1.538.199.586.299 1.222.299 1.907v.203c0 .685-.1 1.321-.299 1.907-.199.586-.489 1.098-.87 1.538-.381.433-.844.773-1.389 1.019-.545.241-1.163.361-1.855.361-.697 0-1.321-.12-1.872-.361-.544-.246-1.007-.586-1.388-1.019-.381-.44-.671-.952-.87-1.538-.2-.586-.299-1.222-.299-1.907Zm2.118-.203v.203c0 .427.044.832.132 1.212.088.381.225.715.413 1.002.187.288.428.513.721.677.293.164.641.246 1.045.246.393 0 .733-.082 1.02-.246.293-.164.533-.389.721-.677.187-.287.325-.621.413-1.002.094-.38.14-.785.14-1.212v-.203c0-.421-.046-.82-.14-1.195-.088-.381-.229-.718-.422-1.011-.188-.293-.428-.521-.721-.685-.287-.17-.63-.255-1.028-.255-.399 0-.744.085-1.037.255-.287.164-.525.392-.712.685-.188.293-.325.63-.413 1.011-.088.375-.132.774-.132 1.195Zm10.75-2.627V111h-2.119v-9.51h1.996l.123 2.031Zm-.378 2.373-.686-.009c.006-.674.1-1.292.281-1.855.188-.562.446-1.046.774-1.45.334-.404.732-.715 1.195-.932.463-.222.979-.334 1.547-.334.457 0 .87.065 1.239.194.375.123.695.325.958.606.27.282.475.648.615 1.099.141.445.211.993.211 1.643V111h-2.127v-6.152c0-.457-.067-.818-.202-1.081-.129-.27-.319-.46-.571-.572-.246-.117-.554-.175-.923-.175-.363 0-.688.076-.975.228-.288.152-.531.36-.73.624-.193.264-.343.568-.448.914-.106.346-.158.715-.158 1.108Zm16.498 2.232 2.549-9.9229h1.336l-.15 2.5579L141.357 111h-1.389l.378-2.874Zm-1.907-9.9229 2.065 9.8439.185 2.953h-1.477l-2.962-12.7969h2.189Zm8.683 9.8179 2.039-9.8179h2.198L148.397 111h-1.477l.202-2.979Zm-2.373-9.8179 2.523 9.9489.369 2.848h-1.389l-2.681-10.239-.14-2.5579h1.318Zm12.095 12.9729c-.704 0-1.339-.114-1.908-.343-.562-.234-1.043-.56-1.441-.976-.393-.416-.694-.905-.905-1.467-.211-.563-.317-1.169-.317-1.82v-.351c0-.744.109-1.418.325-2.022.217-.603.519-1.119.906-1.547.386-.433.843-.764 1.371-.993.527-.228 1.098-.343 1.714-.343.679 0 1.274.115 1.784.343.51.229.931.551 1.265.967.34.41.592.899.756 1.468.17.568.255 1.195.255 1.881v.905h-7.347v-1.521h5.255v-.167c-.011-.38-.087-.738-.228-1.072-.135-.334-.343-.603-.624-.808-.281-.206-.656-.308-1.125-.308-.352 0-.665.076-.941.228-.269.147-.495.361-.676.642-.182.281-.323.621-.422 1.02-.094.392-.141.835-.141 1.327v.351c0 .416.056.803.167 1.16.117.352.287.66.51.923.223.264.492.472.809.624.316.147.676.22 1.081.22.509 0 .963-.102 1.362-.308.398-.205.744-.495 1.037-.87l1.116 1.081c-.205.299-.471.586-.8.862-.328.269-.729.489-1.204.659-.468.17-1.013.255-1.634.255ZM162.46 97.5h2.119v11.47l-.203 2.03h-1.916V97.5Zm8.324 8.657v.185c0 .703-.08 1.35-.238 1.942-.152.586-.386 1.096-.703 1.529-.31.434-.697.771-1.16 1.011-.457.235-.987.352-1.591.352-.592 0-1.107-.112-1.547-.334-.439-.223-.808-.539-1.107-.949-.293-.411-.53-.9-.712-1.468-.182-.569-.311-1.196-.387-1.881v-.589c.076-.691.205-1.318.387-1.881.182-.568.419-1.057.712-1.468.299-.416.665-.735 1.099-.958.439-.222.952-.334 1.538-.334.609 0 1.145.118 1.608.352.469.234.858.568 1.169 1.002.31.428.542.937.694 1.529.158.592.238 1.245.238 1.96Zm-2.119.185v-.185c0-.428-.035-.829-.105-1.204-.07-.381-.188-.715-.352-1.002-.158-.287-.375-.513-.65-.677-.27-.17-.606-.254-1.011-.254-.375 0-.697.064-.967.193-.269.129-.495.305-.676.527-.182.223-.325.481-.431.774-.1.293-.167.609-.202.949v1.591c.053.439.164.843.334 1.213.176.363.422.656.738.879.317.216.724.325 1.222.325.392 0 .723-.079.993-.238.27-.158.483-.378.642-.659.164-.287.281-.621.351-1.002.076-.381.114-.791.114-1.23Zm15.637 1.362c0-.264-.041-.498-.123-.703-.076-.205-.214-.393-.413-.563-.199-.169-.48-.334-.844-.492-.357-.164-.814-.331-1.371-.501-.609-.187-1.172-.395-1.687-.624-.51-.234-.955-.504-1.336-.808-.381-.311-.677-.665-.888-1.064-.211-.404-.316-.87-.316-1.397 0-.522.108-.996.325-1.424.223-.4278.536-.7969.94-1.1075.411-.3164.894-.5596 1.451-.7295.556-.1758 1.172-.2637 1.845-.2637.95 0 1.767.1758 2.453.5274.691.3515 1.221.8232 1.59 1.415.375.5923.563 1.2453.563 1.9603h-2.189c0-.422-.09-.794-.272-1.117-.176-.328-.445-.585-.809-.773-.357-.1875-.811-.2812-1.362-.2812-.521 0-.955.0791-1.301.2373-.345.1579-.603.3719-.773.6419-.17.269-.255.574-.255.914 0 .24.056.46.167.659.111.193.281.375.51.545.228.164.515.319.861.466.346.146.753.287 1.222.422.709.21 1.327.445 1.854.703.527.252.967.539 1.319.861.351.322.615.688.791 1.099.175.404.263.864.263 1.38 0 .539-.108 1.025-.325 1.459-.217.427-.527.793-.932 1.098-.398.299-.879.53-1.441.694-.557.159-1.178.238-1.863.238-.616 0-1.222-.082-1.82-.246-.591-.164-1.131-.413-1.617-.747-.486-.34-.873-.762-1.16-1.266-.287-.51-.431-1.105-.431-1.784h2.206c0 .416.071.77.211 1.063.147.293.349.533.607.721.258.182.556.316.896.404.346.088.715.132 1.108.132.515 0 .946-.073 1.292-.22.351-.146.615-.351.791-.615.175-.264.263-.568.263-.914Zm8.298 3.472c-.703 0-1.339-.114-1.907-.343-.563-.234-1.043-.56-1.442-.976-.392-.416-.694-.905-.905-1.467-.211-.563-.317-1.169-.317-1.82v-.351c0-.744.109-1.418.326-2.022.216-.603.518-1.119.905-1.547.387-.433.844-.764 1.371-.993.527-.228 1.099-.343 1.714-.343.68 0 1.274.115 1.784.343.51.229.932.551 1.266.967.34.41.592.899.756 1.468.17.568.254 1.195.254 1.881v.905h-7.347v-1.521h5.256v-.167c-.012-.38-.088-.738-.229-1.072-.135-.334-.343-.603-.624-.808-.281-.206-.656-.308-1.125-.308-.351 0-.665.076-.94.228-.27.147-.495.361-.677.642-.182.281-.322.621-.422 1.02-.094.392-.141.835-.141 1.327v.351c0 .416.056.803.167 1.16.118.352.288.66.51.923.223.264.492.472.809.624.316.147.677.22 1.081.22.51 0 .964-.102 1.362-.308.399-.205.744-.495 1.037-.87l1.116 1.081c-.205.299-.471.586-.799.862-.328.269-.73.489-1.204.659-.469.17-1.014.255-1.635.255Zm7.735-7.875V111h-2.118v-9.51h2.021l.097 1.811Zm2.909-1.872-.018 1.968c-.129-.023-.269-.041-.422-.052-.146-.012-.292-.018-.439-.018-.363 0-.683.053-.958.158-.275.1-.507.246-.694.44-.182.187-.323.416-.422.685-.1.27-.158.572-.176.906l-.483.035c0-.598.058-1.152.175-1.661.118-.51.293-.958.528-1.345.24-.387.539-.689.896-.905.364-.217.782-.326 1.257-.326.129 0 .267.012.413.036.153.023.267.049.343.079Zm4.729 7.892 2.329-7.831h2.197l-3.304 9.51h-1.371l.149-1.679Zm-1.784-7.831 2.373 7.866.114 1.644h-1.371l-3.322-9.51h2.206Zm10.038 0V111H214.1v-9.51h2.127Zm-2.268-2.4959c0-.3222.105-.5888.316-.7998.217-.2168.516-.3252.897-.3252.375 0 .671.1084.888.3252.216.211.325.4776.325.7998 0 .3164-.109.5801-.325.7911-.217.2109-.513.3168-.888.3168-.381 0-.68-.1059-.897-.3168-.211-.211-.316-.4747-.316-.7911Zm8.623 10.4939c.345 0 .656-.067.931-.202.282-.14.507-.334.677-.58.176-.246.272-.53.29-.852h1.995c-.012.615-.193 1.174-.545 1.678-.351.504-.817.906-1.397 1.204-.58.293-1.222.44-1.925.44-.727 0-1.359-.123-1.898-.369-.539-.252-.988-.598-1.345-1.037-.358-.44-.627-.947-.809-1.521-.176-.574-.263-1.189-.263-1.846v-.307c0-.657.087-1.272.263-1.846.182-.58.451-1.09.809-1.529.357-.44.806-.783 1.345-1.029.539-.252 1.169-.378 1.889-.378.762 0 1.43.153 2.004.457.574.299 1.026.718 1.354 1.257.334.534.506 1.155.518 1.864h-1.995c-.018-.352-.105-.668-.264-.95-.152-.287-.369-.515-.65-.685-.275-.17-.606-.255-.993-.255-.428 0-.782.088-1.064.264-.281.17-.501.404-.659.703-.158.293-.272.624-.343.993-.064.363-.096.741-.096 1.134v.307c0 .393.032.774.096 1.143.065.369.176.7.334.993.164.287.387.519.668.694.282.17.639.255 1.073.255Zm9.862 1.688c-.704 0-1.339-.114-1.908-.343-.562-.234-1.043-.56-1.441-.976-.393-.416-.694-.905-.905-1.467-.211-.563-.317-1.169-.317-1.82v-.351c0-.744.109-1.418.325-2.022.217-.603.519-1.119.906-1.547.386-.433.843-.764 1.371-.993.527-.228 1.098-.343 1.714-.343.679 0 1.274.115 1.784.343.51.229.931.551 1.265.967.34.41.592.899.756 1.468.17.568.255 1.195.255 1.881v.905h-7.347v-1.521h5.255v-.167c-.011-.38-.087-.738-.228-1.072-.135-.334-.343-.603-.624-.808-.281-.206-.656-.308-1.125-.308-.352 0-.665.076-.941.228-.269.147-.495.361-.676.642-.182.281-.323.621-.422 1.02-.094.392-.141.835-.141 1.327v.351c0 .416.056.803.167 1.16.117.352.287.66.51.923.223.264.492.472.809.624.316.147.676.22 1.081.22.509 0 .963-.102 1.362-.308.398-.205.744-.495 1.037-.87l1.116 1.081c-.205.299-.471.586-.8.862-.328.269-.729.489-1.204.659-.468.17-1.013.255-1.634.255Zm10.943-2.751c0-.211-.053-.402-.159-.571-.105-.176-.307-.334-.606-.475-.293-.141-.727-.27-1.301-.387-.504-.111-.967-.243-1.389-.395-.416-.159-.773-.349-1.072-.572-.299-.222-.53-.486-.694-.791-.164-.304-.246-.656-.246-1.054 0-.387.085-.753.255-1.099.17-.346.413-.65.729-.914.317-.264.7-.472 1.151-.624.457-.152.967-.229 1.53-.229.797 0 1.479.135 2.048.405.574.263 1.013.624 1.318 1.081.305.451.457.961.457 1.529h-2.118c0-.252-.065-.486-.194-.703-.123-.223-.31-.401-.562-.536-.252-.141-.568-.211-.949-.211-.364 0-.665.059-.906.176-.234.111-.41.257-.527.439-.111.182-.167.381-.167.598 0 .158.029.302.088.43.064.124.17.238.316.343.147.1.346.194.598.281.258.088.58.173.967.255.726.153 1.35.349 1.872.589.527.235.932.539 1.213.914.281.369.422.838.422 1.407 0 .421-.091.808-.273 1.16-.176.345-.433.647-.773.905-.34.252-.747.448-1.222.589-.469.14-.996.211-1.582.211-.861 0-1.591-.153-2.188-.457-.598-.311-1.052-.706-1.363-1.187-.304-.486-.457-.99-.457-1.511h2.048c.024.392.132.706.325.94.2.228.446.395.739.501.298.1.606.149.922.149.381 0 .701-.049.959-.149.257-.106.454-.246.588-.422.135-.182.203-.387.203-.615Zm16.48-1.591h2.197c-.07.838-.304 1.585-.703 2.241-.398.651-.958 1.163-1.678 1.538-.721.375-1.597.563-2.628.563-.791 0-1.503-.141-2.136-.422-.633-.287-1.175-.692-1.626-1.213-.451-.527-.797-1.163-1.037-1.907-.235-.744-.352-1.576-.352-2.496v-1.064c0-.92.12-1.752.361-2.496.246-.744.597-1.38 1.054-1.9071.457-.5332 1.005-.9404 1.644-1.2217.644-.2812 1.368-.4219 2.171-.4219 1.019 0 1.881.1875 2.584.5625.703.375 1.248.8936 1.635 1.5562.392.662.632 1.42.72 2.276h-2.197c-.059-.551-.188-1.023-.387-1.415-.193-.393-.48-.692-.861-.897-.381-.2106-.879-.3161-1.494-.3161-.504 0-.944.0938-1.319.2811-.375.188-.688.463-.94.826-.252.364-.442.812-.571 1.345-.123.527-.185 1.131-.185 1.811v1.081c0 .644.056 1.23.167 1.758.117.521.293.969.527 1.344.241.375.545.665.915.87.369.205.811.308 1.327.308.627 0 1.133-.1 1.52-.299.393-.199.689-.489.888-.87.205-.387.34-.858.404-1.415Zm6.408-9.334V111h-2.127V97.5h2.127Zm2.066 8.851v-.203c0-.685.1-1.321.299-1.907.199-.592.486-1.104.861-1.538.381-.439.844-.779 1.389-1.019.551-.246 1.172-.37 1.863-.37.697 0 1.318.124 1.863.37.551.24 1.017.58 1.398 1.019.381.434.671.946.87 1.538.199.586.299 1.222.299 1.907v.203c0 .685-.1 1.321-.299 1.907-.199.586-.489 1.098-.87 1.538-.381.433-.844.773-1.389 1.019-.545.241-1.163.361-1.854.361-.698 0-1.322-.12-1.872-.361-.545-.246-1.008-.586-1.389-1.019-.381-.44-.671-.952-.87-1.538-.199-.586-.299-1.222-.299-1.907Zm2.118-.203v.203c0 .427.044.832.132 1.212.088.381.226.715.413 1.002.188.288.428.513.721.677.293.164.641.246 1.046.246.392 0 .732-.082 1.019-.246.293-.164.533-.389.721-.677.187-.287.325-.621.413-1.002.094-.38.141-.785.141-1.212v-.203c0-.421-.047-.82-.141-1.195-.088-.381-.228-.718-.422-1.011-.187-.293-.428-.521-.721-.685-.287-.17-.629-.255-1.028-.255-.398 0-.744.085-1.037.255-.287.164-.524.392-.712.685-.187.293-.325.63-.413 1.011-.088.375-.132.774-.132 1.195Zm14.371 2.611v-7.269h2.127V111h-2.004l-.123-2.241Zm.299-1.978.712-.017c0 .638-.071 1.227-.211 1.766-.141.533-.358.999-.651 1.398-.293.392-.668.7-1.125.923-.457.216-1.005.325-1.643.325-.463 0-.888-.068-1.275-.202-.386-.135-.72-.343-1.002-.624-.275-.282-.489-.648-.641-1.099-.153-.451-.229-.99-.229-1.617v-6.144h2.118v6.161c0 .346.041.636.123.87.082.229.194.414.334.554.141.141.305.24.493.299.187.059.386.088.597.088.604 0 1.078-.117 1.424-.352.352-.24.601-.562.747-.966.153-.405.229-.859.229-1.363Zm9.95 2.25V97.5h2.126V111h-1.924l-.202-1.969Zm-6.188-2.68v-.185c0-.721.085-1.377.255-1.969.17-.597.416-1.11.738-1.538.322-.433.715-.764 1.178-.993.463-.234.984-.352 1.564-.352.575 0 1.078.112 1.512.334.434.223.803.542 1.108.958.304.411.547.903.729 1.477.182.568.311 1.201.387 1.898v.589c-.076.68-.205 1.301-.387 1.864-.182.562-.425 1.048-.729 1.459-.305.41-.677.726-1.117.949-.433.222-.94.334-1.52.334-.574 0-1.093-.12-1.556-.361-.457-.24-.847-.577-1.169-1.01-.322-.434-.568-.944-.738-1.53-.17-.591-.255-1.233-.255-1.924Zm2.118-.185v.185c0 .433.038.837.114 1.212.082.375.208.707.378.994.17.281.39.504.66.668.275.158.603.237.984.237.48 0 .876-.106 1.186-.316.311-.211.554-.496.73-.853.182-.363.305-.768.369-1.213v-1.591c-.035-.345-.108-.668-.22-.967-.105-.298-.249-.559-.43-.782-.182-.228-.408-.404-.677-.527-.264-.129-.577-.193-.94-.193-.387 0-.715.082-.985.246-.269.164-.492.389-.668.676-.17.287-.296.621-.378 1.002-.082.381-.123.788-.123 1.222Z"
            fill="#232F3E" />
    </g>
    <g clip-path="url(#i)">
        <path fill-rule="evenodd" clip-rule="evenodd"
            d="M191.636 608.364h32.728v-32.728h-32.728v32.728ZM232 580v-2.182h-5.455v-3.273c0-.602-.488-1.09-1.09-1.09h-3.273V568H220v5.455h-4.364V568h-2.181v5.455h-4.364V568h-2.182v5.455h-4.364V568h-2.181v5.455H196V568h-2.182v5.455h-3.273c-.602 0-1.09.488-1.09 1.09v3.273H184V580h5.455v4.364H184v2.181h5.455v4.364H184v2.182h5.455v4.364H184v2.181h5.455V604H184v2.182h5.455v3.273c0 .602.488 1.09 1.09 1.09h3.273V616H196v-5.455h4.364V616h2.181v-5.455h4.364V616h2.182v-5.455h4.364V616h2.181v-5.455H220V616h2.182v-5.455h3.273c.602 0 1.09-.488 1.09-1.09v-3.273H232V604h-5.455v-4.364H232v-2.181h-5.455v-4.364H232v-2.182h-5.455v-4.364H232v-2.181h-5.455V580H232Z"
            fill="#DA6912" />
        <path
            d="M163.677 631.251V633h-6.794v-1.749h6.794Zm-6.17-11.048V633h-2.206v-12.797h2.206Zm5.282 5.344v1.723h-5.906v-1.723h5.906Zm.844-5.344v1.758h-6.75v-1.758h6.75Zm9.554 8.631h2.197c-.07.838-.304 1.585-.703 2.241-.398.651-.958 1.163-1.678 1.538-.721.375-1.597.563-2.628.563-.791 0-1.503-.141-2.136-.422-.633-.287-1.175-.692-1.626-1.213-.451-.527-.797-1.163-1.037-1.907-.235-.744-.352-1.576-.352-2.496v-1.064c0-.92.12-1.752.361-2.496.246-.744.597-1.38 1.054-1.907.457-.533 1.005-.941 1.644-1.222.644-.281 1.368-.422 2.171-.422 1.019 0 1.881.188 2.584.563.703.375 1.248.893 1.634 1.556.393.662.633 1.42.721 2.276h-2.197c-.059-.551-.188-1.023-.387-1.415-.193-.393-.48-.692-.861-.897-.381-.211-.879-.316-1.494-.316-.504 0-.944.094-1.319.281-.375.188-.688.463-.94.826-.252.364-.442.812-.571 1.345-.123.527-.185 1.131-.185 1.811v1.081c0 .644.056 1.23.167 1.758.117.521.293.969.527 1.344.241.375.545.665.914.87.37.205.812.308 1.328.308.627 0 1.133-.1 1.52-.299.393-.199.689-.489.888-.87.205-.387.34-.858.404-1.415Zm12.595 2.478V633h-8.578v-1.45l4.166-4.544c.457-.516.818-.961 1.081-1.336.264-.375.449-.712.554-1.011.111-.305.167-.6.167-.888 0-.404-.076-.758-.228-1.063-.147-.311-.364-.554-.651-.729-.287-.182-.636-.273-1.046-.273-.474 0-.873.103-1.195.308-.322.205-.565.489-.73.852-.164.358-.246.768-.246 1.231h-2.118c0-.744.17-1.424.51-2.039.34-.621.832-1.114 1.477-1.477.644-.369 1.42-.554 2.329-.554.855 0 1.582.144 2.179.431.598.287 1.052.694 1.363 1.222.316.527.474 1.151.474 1.872 0 .398-.064.794-.193 1.186-.129.393-.314.785-.554 1.178-.234.387-.513.776-.835 1.169-.322.387-.677.779-1.063 1.178l-2.769 3.049h5.906Zm9.125-11.109V633h-2.206v-12.797h2.206Zm4.781 5.318V633h-2.118v-9.51h1.995l.123 2.031Zm-.377 2.373-.686-.009c.006-.674.1-1.292.281-1.855.188-.562.446-1.046.774-1.45.334-.404.732-.715 1.195-.932.463-.222.979-.334 1.547-.334.457 0 .87.065 1.239.194.375.123.694.325.958.606.27.282.475.648.615 1.099.141.445.211.993.211 1.643V633h-2.127v-6.152c0-.457-.067-.818-.202-1.081-.129-.27-.319-.46-.571-.572-.246-.117-.554-.175-.923-.175-.363 0-.688.076-.976.228-.287.152-.53.36-.729.624-.193.264-.343.568-.448.914-.106.346-.158.715-.158 1.108Zm13.781 2.531c0-.211-.052-.402-.158-.571-.105-.176-.307-.334-.606-.475-.293-.141-.727-.27-1.301-.387-.504-.111-.967-.243-1.389-.395-.416-.159-.773-.349-1.072-.572-.299-.222-.53-.486-.694-.791-.164-.304-.246-.656-.246-1.054 0-.387.085-.753.254-1.099.17-.346.414-.65.73-.914s.7-.472 1.151-.624c.457-.152.967-.229 1.53-.229.797 0 1.479.135 2.047.405.575.263 1.014.624 1.319 1.081.305.451.457.961.457 1.529h-2.118c0-.252-.065-.486-.194-.703-.123-.223-.31-.401-.562-.536-.252-.141-.569-.211-.949-.211-.364 0-.665.059-.906.176-.234.111-.41.257-.527.439-.111.182-.167.381-.167.598 0 .158.029.302.088.43.064.124.17.238.316.343.147.1.346.194.598.281.258.088.58.173.967.255.726.153 1.35.349 1.872.589.527.235.931.539 1.213.914.281.369.422.838.422 1.407 0 .421-.091.808-.273 1.16-.176.345-.433.647-.773.905-.34.252-.747.448-1.222.589-.469.14-.996.211-1.582.211-.861 0-1.591-.153-2.188-.457-.598-.311-1.052-.706-1.363-1.187-.304-.486-.457-.99-.457-1.511h2.048c.023.392.132.706.325.94.199.228.446.395.739.501.298.1.606.149.922.149.381 0 .701-.049.958-.149.258-.106.454-.246.589-.422.135-.182.202-.387.202-.615Zm8.438-6.935v1.547h-5.361v-1.547h5.361Zm-3.814-2.329h2.118v9.211c0 .293.041.519.123.677.088.152.208.255.361.307.152.053.331.08.536.08.146 0 .287-.009.422-.027.134-.017.243-.035.325-.053l.009 1.618c-.176.052-.381.099-.616.14-.228.041-.492.062-.791.062-.486 0-.917-.085-1.292-.255-.375-.176-.668-.46-.879-.853-.211-.392-.316-.914-.316-1.564v-9.343Zm10.961 9.932v-4.535c0-.34-.062-.633-.185-.879s-.311-.437-.563-.572c-.246-.134-.556-.202-.931-.202-.346 0-.645.059-.897.176-.252.117-.448.275-.589.475-.14.199-.21.424-.21.676h-2.11c0-.375.091-.738.273-1.089.181-.352.445-.665.791-.941.345-.275.758-.492 1.239-.65.48-.158 1.019-.238 1.617-.238.715 0 1.348.121 1.899.361.556.24.993.603 1.309 1.09.322.48.484 1.084.484 1.81v4.228c0 .433.029.823.087 1.169.065.34.156.635.273.887V633h-2.171c-.1-.229-.179-.519-.237-.87-.053-.358-.079-.703-.079-1.037Zm.307-3.876.018 1.309h-1.521c-.392 0-.738.038-1.037.115-.299.07-.548.175-.747.316-.199.141-.349.311-.448.51-.1.199-.15.425-.15.677 0 .252.059.483.176.694.117.205.287.366.51.483.228.117.504.176.826.176.434 0 .812-.088 1.134-.264.328-.181.586-.401.773-.659.188-.263.287-.512.299-.747l.686.941c-.071.24-.191.498-.361.773-.17.275-.392.539-.668.791-.269.246-.594.448-.975.606-.375.159-.809.238-1.301.238-.621 0-1.175-.123-1.661-.369-.486-.252-.867-.589-1.143-1.011-.275-.428-.413-.911-.413-1.45 0-.504.094-.95.281-1.336.194-.393.475-.721.844-.985.375-.263.832-.463 1.371-.597.539-.141 1.155-.211 1.846-.211h1.661Zm6.285-1.696V633h-2.118v-9.51h1.995l.123 2.031Zm-.378 2.373-.686-.009c.006-.674.1-1.292.282-1.855.187-.562.445-1.046.773-1.45.334-.404.733-.715 1.195-.932.463-.222.979-.334 1.547-.334.457 0 .87.065 1.24.194.375.123.694.325.958.606.269.282.474.648.615 1.099.14.445.211.993.211 1.643V633h-2.127v-6.152c0-.457-.068-.818-.202-1.081-.129-.27-.32-.46-.572-.572-.246-.117-.553-.175-.922-.175-.364 0-.689.076-.976.228-.287.152-.53.36-.73.624-.193.264-.342.568-.448.914-.105.346-.158.715-.158 1.108Zm12.332 3.594c.345 0 .656-.067.931-.202.282-.14.507-.334.677-.58.176-.246.273-.53.29-.852h1.995c-.012.615-.193 1.174-.545 1.678-.351.504-.817.906-1.397 1.204-.58.293-1.222.44-1.925.44-.727 0-1.359-.123-1.898-.369-.539-.252-.988-.598-1.345-1.037-.358-.44-.627-.947-.809-1.521-.176-.574-.263-1.189-.263-1.846v-.307c0-.657.087-1.272.263-1.846.182-.58.451-1.09.809-1.529.357-.44.806-.783 1.345-1.029.539-.252 1.169-.378 1.889-.378.762 0 1.43.153 2.004.457.574.299 1.026.718 1.354 1.257.334.534.506 1.155.518 1.864h-1.995c-.017-.352-.105-.668-.264-.95-.152-.287-.369-.515-.65-.685-.275-.17-.606-.255-.993-.255-.428 0-.782.088-1.064.264-.281.17-.501.404-.659.703-.158.293-.272.624-.343.993-.064.363-.096.741-.096 1.134v.307c0 .393.032.774.096 1.143.065.369.176.7.334.993.164.287.387.519.668.694.282.17.639.255 1.073.255Zm9.862 1.688c-.704 0-1.339-.114-1.908-.343-.562-.234-1.043-.56-1.441-.976-.393-.416-.694-.905-.905-1.467-.211-.563-.317-1.169-.317-1.82v-.351c0-.744.109-1.418.325-2.022.217-.603.519-1.119.906-1.547.386-.433.843-.764 1.371-.993.527-.228 1.098-.343 1.714-.343.679 0 1.274.115 1.784.343.51.229.932.551 1.265.967.34.41.592.899.756 1.468.17.568.255 1.195.255 1.881v.905h-7.347v-1.521h5.255v-.167c-.011-.38-.087-.738-.228-1.072-.135-.334-.343-.603-.624-.808-.281-.206-.656-.308-1.125-.308-.352 0-.665.076-.941.228-.269.147-.495.361-.676.642-.182.281-.323.621-.422 1.02-.094.392-.141.835-.141 1.327v.351c0 .416.056.803.167 1.16.117.352.287.66.51.923.223.264.492.472.809.624.316.147.676.22 1.081.22.509 0 .963-.102 1.362-.308.398-.205.744-.495 1.037-.87l1.116 1.081c-.205.299-.471.586-.8.862-.328.269-.729.489-1.204.659-.468.17-1.013.255-1.634.255Z"
            fill="#232F3E" />
    </g>
    <g clip-path="url(#j)">
        <path fill-rule="evenodd" clip-rule="evenodd"
            d="M495.636 608.364h32.728v-32.728h-32.728v32.728ZM536 580v-2.182h-5.455v-3.273c0-.602-.488-1.09-1.09-1.09h-3.273V568H524v5.455h-4.364V568h-2.181v5.455h-4.364V568h-2.182v5.455h-4.364V568h-2.181v5.455H500V568h-2.182v5.455h-3.273c-.602 0-1.09.488-1.09 1.09v3.273H488V580h5.455v4.364H488v2.181h5.455v4.364H488v2.182h5.455v4.364H488v2.181h5.455V604H488v2.182h5.455v3.273c0 .602.488 1.09 1.09 1.09h3.273V616H500v-5.455h4.364V616h2.181v-5.455h4.364V616h2.182v-5.455h4.364V616h2.181v-5.455H524V616h2.182v-5.455h3.273c.602 0 1.09-.488 1.09-1.09v-3.273H536V604h-5.455v-4.364H536v-2.181h-5.455v-4.364H536v-2.182h-5.455v-4.364H536v-2.181h-5.455V580H536Z"
            fill="#DA6912" />
        <path
            d="M467.677 631.251V633h-6.794v-1.749h6.794Zm-6.17-11.048V633h-2.206v-12.797h2.206Zm5.282 5.344v1.723h-5.906v-1.723h5.906Zm.844-5.344v1.758h-6.75v-1.758h6.75Zm9.554 8.631h2.197c-.07.838-.304 1.585-.703 2.241-.398.651-.958 1.163-1.678 1.538-.721.375-1.597.563-2.628.563-.791 0-1.503-.141-2.136-.422-.633-.287-1.175-.692-1.626-1.213-.451-.527-.797-1.163-1.037-1.907-.235-.744-.352-1.576-.352-2.496v-1.064c0-.92.12-1.752.361-2.496.246-.744.597-1.38 1.054-1.907.457-.533 1.005-.941 1.644-1.222.644-.281 1.368-.422 2.171-.422 1.019 0 1.881.188 2.584.563.703.375 1.248.893 1.634 1.556.393.662.633 1.42.721 2.276h-2.197c-.059-.551-.188-1.023-.387-1.415-.193-.393-.48-.692-.861-.897-.381-.211-.879-.316-1.494-.316-.504 0-.944.094-1.319.281-.375.188-.688.463-.94.826-.252.364-.442.812-.571 1.345-.123.527-.185 1.131-.185 1.811v1.081c0 .644.056 1.23.167 1.758.117.521.293.969.527 1.344.241.375.545.665.914.87.37.205.812.308 1.328.308.627 0 1.133-.1 1.52-.299.393-.199.689-.489.888-.87.205-.387.34-.858.404-1.415Zm12.595 2.478V633h-8.578v-1.45l4.166-4.544c.457-.516.818-.961 1.081-1.336.264-.375.449-.712.554-1.011.111-.305.167-.6.167-.888 0-.404-.076-.758-.228-1.063-.147-.311-.364-.554-.651-.729-.287-.182-.636-.273-1.046-.273-.474 0-.873.103-1.195.308-.322.205-.565.489-.73.852-.164.358-.246.768-.246 1.231h-2.118c0-.744.17-1.424.51-2.039.34-.621.832-1.114 1.477-1.477.644-.369 1.42-.554 2.329-.554.855 0 1.582.144 2.179.431.598.287 1.052.694 1.363 1.222.316.527.474 1.151.474 1.872 0 .398-.064.794-.193 1.186-.129.393-.314.785-.554 1.178-.234.387-.513.776-.835 1.169-.322.387-.677.779-1.063 1.178l-2.769 3.049h5.906Zm9.125-11.109V633h-2.206v-12.797h2.206Zm4.781 5.318V633h-2.118v-9.51h1.995l.123 2.031Zm-.377 2.373-.686-.009c.006-.674.1-1.292.281-1.855.188-.562.446-1.046.774-1.45.334-.404.732-.715 1.195-.932.463-.222.979-.334 1.547-.334.457 0 .87.065 1.239.194.375.123.694.325.958.606.27.282.475.648.615 1.099.141.445.211.993.211 1.643V633h-2.127v-6.152c0-.457-.067-.818-.202-1.081-.129-.27-.319-.46-.571-.572-.246-.117-.554-.175-.923-.175-.363 0-.688.076-.976.228-.287.152-.53.36-.729.624-.193.264-.343.568-.448.914-.106.346-.158.715-.158 1.108Zm13.781 2.531c0-.211-.052-.402-.158-.571-.105-.176-.307-.334-.606-.475-.293-.141-.727-.27-1.301-.387-.504-.111-.967-.243-1.389-.395-.416-.159-.773-.349-1.072-.572-.299-.222-.53-.486-.694-.791-.164-.304-.246-.656-.246-1.054 0-.387.085-.753.254-1.099.17-.346.414-.65.73-.914s.7-.472 1.151-.624c.457-.152.967-.229 1.53-.229.797 0 1.479.135 2.047.405.575.263 1.014.624 1.319 1.081.305.451.457.961.457 1.529h-2.118c0-.252-.065-.486-.194-.703-.123-.223-.31-.401-.562-.536-.252-.141-.569-.211-.949-.211-.364 0-.665.059-.906.176-.234.111-.41.257-.527.439-.111.182-.167.381-.167.598 0 .158.029.302.088.43.064.124.17.238.316.343.147.1.346.194.598.281.258.088.58.173.967.255.726.153 1.35.349 1.872.589.527.235.931.539 1.213.914.281.369.422.838.422 1.407 0 .421-.091.808-.273 1.16-.176.345-.433.647-.773.905-.34.252-.747.448-1.222.589-.469.14-.996.211-1.582.211-.861 0-1.591-.153-2.188-.457-.598-.311-1.052-.706-1.363-1.187-.304-.486-.457-.99-.457-1.511h2.048c.023.392.132.706.325.94.199.228.446.395.739.501.298.1.606.149.922.149.381 0 .701-.049.958-.149.258-.106.454-.246.589-.422.135-.182.202-.387.202-.615Zm8.438-6.935v1.547h-5.361v-1.547h5.361Zm-3.814-2.329h2.118v9.211c0 .293.041.519.123.677.088.152.208.255.361.307.152.053.331.08.536.08.146 0 .287-.009.422-.027.134-.017.243-.035.325-.053l.009 1.618c-.176.052-.381.099-.616.14-.228.041-.492.062-.791.062-.486 0-.917-.085-1.292-.255-.375-.176-.668-.46-.879-.853-.211-.392-.316-.914-.316-1.564v-9.343Zm10.961 9.932v-4.535c0-.34-.062-.633-.185-.879s-.311-.437-.563-.572c-.246-.134-.556-.202-.931-.202-.346 0-.645.059-.897.176-.252.117-.448.275-.589.475-.14.199-.21.424-.21.676h-2.11c0-.375.091-.738.273-1.089.181-.352.445-.665.791-.941.345-.275.758-.492 1.239-.65.48-.158 1.019-.238 1.617-.238.715 0 1.348.121 1.899.361.556.24.993.603 1.309 1.09.322.48.484 1.084.484 1.81v4.228c0 .433.029.823.087 1.169.065.34.156.635.273.887V633h-2.171c-.1-.229-.179-.519-.237-.87-.053-.358-.079-.703-.079-1.037Zm.307-3.876.018 1.309h-1.521c-.392 0-.738.038-1.037.115-.299.07-.548.175-.747.316-.199.141-.349.311-.448.51-.1.199-.15.425-.15.677 0 .252.059.483.176.694.117.205.287.366.51.483.228.117.504.176.826.176.434 0 .812-.088 1.134-.264.328-.181.586-.401.773-.659.188-.263.287-.512.299-.747l.686.941c-.071.24-.191.498-.361.773-.17.275-.392.539-.668.791-.269.246-.594.448-.975.606-.375.159-.809.238-1.301.238-.621 0-1.175-.123-1.661-.369-.486-.252-.867-.589-1.143-1.011-.275-.428-.413-.911-.413-1.45 0-.504.094-.95.281-1.336.194-.393.475-.721.844-.985.375-.263.832-.463 1.371-.597.539-.141 1.155-.211 1.846-.211h1.661Zm6.285-1.696V633h-2.118v-9.51h1.995l.123 2.031Zm-.378 2.373-.686-.009c.006-.674.1-1.292.282-1.855.187-.562.445-1.046.773-1.45.334-.404.733-.715 1.195-.932.463-.222.979-.334 1.547-.334.457 0 .87.065 1.24.194.375.123.694.325.958.606.269.282.474.648.615 1.099.14.445.211.993.211 1.643V633h-2.127v-6.152c0-.457-.068-.818-.202-1.081-.129-.27-.32-.46-.572-.572-.246-.117-.553-.175-.922-.175-.364 0-.689.076-.976.228-.287.152-.53.36-.73.624-.193.264-.342.568-.448.914-.105.346-.158.715-.158 1.108Zm12.332 3.594c.345 0 .656-.067.931-.202.282-.14.507-.334.677-.58.176-.246.273-.53.29-.852h1.995c-.012.615-.193 1.174-.545 1.678-.351.504-.817.906-1.397 1.204-.58.293-1.222.44-1.925.44-.727 0-1.359-.123-1.898-.369-.539-.252-.988-.598-1.345-1.037-.358-.44-.627-.947-.809-1.521-.176-.574-.263-1.189-.263-1.846v-.307c0-.657.087-1.272.263-1.846.182-.58.451-1.09.809-1.529.357-.44.806-.783 1.345-1.029.539-.252 1.169-.378 1.889-.378.762 0 1.43.153 2.004.457.574.299 1.026.718 1.354 1.257.334.534.506 1.155.518 1.864h-1.995c-.017-.352-.105-.668-.264-.95-.152-.287-.369-.515-.65-.685-.275-.17-.606-.255-.993-.255-.428 0-.782.088-1.064.264-.281.17-.501.404-.659.703-.158.293-.272.624-.343.993-.064.363-.096.741-.096 1.134v.307c0 .393.032.774.096 1.143.065.369.176.7.334.993.164.287.387.519.668.694.282.17.639.255 1.073.255Zm9.862 1.688c-.704 0-1.339-.114-1.908-.343-.562-.234-1.043-.56-1.441-.976-.393-.416-.694-.905-.905-1.467-.211-.563-.317-1.169-.317-1.82v-.351c0-.744.109-1.418.325-2.022.217-.603.519-1.119.906-1.547.386-.433.843-.764 1.371-.993.527-.228 1.098-.343 1.714-.343.679 0 1.274.115 1.784.343.51.229.932.551 1.265.967.34.41.592.899.756 1.468.17.568.255 1.195.255 1.881v.905h-7.347v-1.521h5.255v-.167c-.011-.38-.087-.738-.228-1.072-.135-.334-.343-.603-.624-.808-.281-.206-.656-.308-1.125-.308-.352 0-.665.076-.941.228-.269.147-.495.361-.676.642-.182.281-.323.621-.422 1.02-.094.392-.141.835-.141 1.327v.351c0 .416.056.803.167 1.16.117.352.287.66.51.923.223.264.492.472.809.624.316.147.676.22 1.081.22.509 0 .963-.102 1.362-.308.398-.205.744-.495 1.037-.87l1.116 1.081c-.205.299-.471.586-.8.862-.328.269-.729.489-1.204.659-.468.17-1.013.255-1.634.255Z"
            fill="#232F3E" />
    </g>
    <path fill-rule="evenodd" clip-rule="evenodd"
        d="M370.57 279.317h2.558v-2.59h-2.558v2.59Zm-7.57 0h2.591v-2.59H363v2.59Zm-8.59 0h2.591v-2.59h-2.591v2.59Zm-7.538 0h2.492v-2.59h-2.492v2.59Zm6.583-19.09h13.091v-6.409h-13.091v6.409Zm20.764 14.318h-1.673v-3.682c0-.602-.489-1.091-1.091-1.091h-2.727v-3.682c0-.602-.489-1.09-1.091-1.09h-6.546v-2.591h6.546c.602 0 1.091-.489 1.091-1.091v-8.591c0-.602-.489-1.091-1.091-1.091h-15.273c-.602 0-1.091.489-1.091 1.091v8.591c0 .602.489 1.091 1.091 1.091h6.546V265h-6.546c-.602 0-1.091.488-1.091 1.09v3.682h-2.727c-.602 0-1.091.489-1.091 1.091v3.682h-1.675c-.603 0-1.091.488-1.091 1.091v4.772c0 .603.488 1.091 1.091 1.091h4.675c.603 0 1.091-.488 1.091-1.091v-4.772c0-.603-.488-1.091-1.091-1.091h-.818v-2.591h4.5v2.591h-.818c-.603 0-1.091.488-1.091 1.091v4.772c0 .603.488 1.091 1.091 1.091h4.772c.603 0 1.091-.488 1.091-1.091v-4.772c0-.603-.488-1.091-1.091-1.091h-1.772v-3.682c0-.602-.489-1.091-1.091-1.091h-1.773v-2.591h13.091v2.591h-1.773c-.602 0-1.091.489-1.091 1.091v3.682h-1.772c-.603 0-1.091.488-1.091 1.091v4.772c0 .603.488 1.091 1.091 1.091h4.772c.603 0 1.091-.488 1.091-1.091v-4.772c0-.603-.488-1.091-1.091-1.091h-.818v-2.591h4.5v2.591h-.885c-.602 0-1.091.488-1.091 1.091v4.772c0 .603.489 1.091 1.091 1.091h4.74c.603 0 1.091-.488 1.091-1.091v-4.772c0-.603-.488-1.091-1.091-1.091Zm-14.218 15.272c-12.032 0-21.819-9.787-21.819-21.818 0-12.03 9.787-21.817 21.819-21.817 12.03 0 21.817 9.787 21.817 21.817 0 12.031-9.787 21.818-21.817 21.818Zm0-45.817C346.766 244 336 254.766 336 267.999c0 13.234 10.766 24 24.001 24 13.232 0 23.999-10.766 23.999-24C384 254.766 373.233 244 360.001 244Z"
        fill="#4D27AA" />
    <g fill="#232F3E">
        <path
            d="M349.662 31.6074H337.96c-.53 0-.96-.4298-.96-.96v-1.44c-.006-5.2738 3.601-9.8653 8.726-11.1072.235-.0559.481-.0216.692.096 1.478.7919 3.254.7919 4.732 0 .211-.1176.457-.1519.692-.096 1.304.3188 2.542.8647 3.657 1.6128l-1.075 1.5936c-.83-.5457-1.74-.9571-2.698-1.2192-1.867.8596-4.017.8596-5.884 0-4.091 1.1514-6.918 4.8804-6.922 9.1296v.4704h10.742v1.92Z" />
        <path fill-rule="evenodd" clip-rule="evenodd"
            d="M348.77 20.6922c-3.478 0-6.298-2.8196-6.298-6.2976 0-3.4781 2.82-6.29763 6.298-6.29763 2.889-.02737 5.425 1.91763 6.147 4.71503.723 2.7974-.554 5.7272-3.095 7.1026-.936.5101-1.986.7775-3.052.7776Zm0-10.6752c-2.43-.0107-4.41 1.9477-4.426 4.3776-.002 1.6027.875 3.0774 2.285 3.84 1.335.7255 2.946.7255 4.281 0 1.768-.9577 2.653-2.9978 2.146-4.9428-.507-1.945-2.276-3.29273-4.286-3.2652v-.0096Zm20.688 21.5904h11.702c.523-.0105.941-.4372.941-.96V29.217c.005-5.2766-3.607-9.8691-8.736-11.1072-.23-.0563-.473-.0255-.682.0864-1.482.8022-3.269.8022-4.752 0-.213-.1092-.458-.1398-.691-.0864-1.319.3279-2.566.8975-3.677 1.68l1.085 1.5744c.833-.578 1.758-1.0098 2.736-1.2768 1.865.8687 4.019.8687 5.885 0 4.092 1.144 6.924 4.8705 6.931 9.12v.48h-10.742v1.92Z" />
        <path fill-rule="evenodd" clip-rule="evenodd"
            d="M364.024 15.1314c.396 3.1731 3.09 5.5562 6.288 5.5608 1.067-.0001 2.116-.2675 3.053-.7776 2.806-1.5338 4.032-4.9157 2.861-7.8913-1.171-2.97561-4.372-4.61527-7.471-3.82597-3.099.78929-5.126 3.76087-4.731 6.93407Zm1.862-.7368c.016-2.4299 1.996-4.3883 4.426-4.3776 2.017-.03611 3.796 1.3139 4.305 3.2661.509 1.9522-.386 3.9988-2.164 4.9515-1.335.7255-2.947.7255-4.282 0-1.41-.7626-2.287-2.2373-2.285-3.84Zm8.976 38.8032H344.2c-.53 0-.96-.4298-.96-.96v-2.0352c-.02-7.2871 4.958-13.6381 12.038-15.36.234-.0588.48-.028.692.0864 2.219 1.1861 4.884 1.1861 7.104 0 .211-.1144.458-.1452.691-.0864 7.09 1.7112 12.079 8.066 12.057 15.36v2.0352c0 .5302-.429.96-.96.96Zm-.96-1.92H345.16v-1.0752c0-6.2573 4.194-11.738 10.234-13.3728 2.607 1.2619 5.648 1.2619 8.256 0 6.047 1.6275 10.251 7.11 10.252 13.3728v1.0752Z" />
        <path fill-rule="evenodd" clip-rule="evenodd"
            d="M355.403 36.6858c1.275.6957 2.705 1.0589 4.157 1.056 1.443-.0019 2.862-.3649 4.128-1.056 3.465-1.8931 5.206-5.8943 4.229-9.7199-.977-3.8257-4.423-6.5024-8.371-6.5024-3.949 0-7.395 2.6767-8.372 6.5024-.977 3.8256.764 7.8268 4.229 9.7199Zm-2.3-9.1363c.766-2.9303 3.429-4.9626 6.457-4.9277 3.033-.0392 5.7 1.9981 6.461 4.9343.76 2.9363-.584 6.0121-3.255 7.4497-2.011 1.0803-4.43 1.0803-6.441 0-2.659-1.4509-3.987-4.5259-3.222-7.4563Z" />
    </g>
    <g clip-path="url(#k)">
        <path
            d="M104.033 549.704c0-.264-.041-.498-.123-.703-.076-.205-.214-.393-.413-.563-.199-.169-.48-.334-.844-.492-.357-.164-.814-.331-1.371-.501-.609-.187-1.172-.395-1.6873-.624-.5097-.234-.9551-.504-1.3359-.808-.3809-.311-.6768-.665-.8877-1.064-.2109-.404-.3164-.87-.3164-1.397 0-.522.1084-.996.3252-1.424.2226-.428.5361-.797.9404-1.107.4102-.317.8936-.56 1.4502-.73.5565-.176 1.1715-.264 1.8455-.264.949 0 1.767.176 2.452.528.692.351 1.222.823 1.591 1.415.375.592.563 1.245.563 1.96h-2.189c0-.422-.091-.794-.272-1.117-.176-.328-.446-.585-.809-.773-.357-.187-.811-.281-1.362-.281-.522 0-.955.079-1.301.237-.3456.158-.6035.372-.7734.642-.1699.269-.2549.574-.2549.914 0 .24.0557.46.167.659.1114.193.2813.375.5098.545.2285.164.5155.319.8615.466.346.146.753.287 1.222.422.708.21 1.327.445 1.854.703.527.252.967.539 1.318.861.352.322.616.688.791 1.099.176.404.264.864.264 1.38 0 .539-.108 1.025-.325 1.459-.217.427-.527.793-.932 1.098-.398.299-.879.53-1.441.694-.557.159-1.178.238-1.863.238-.616 0-1.222-.082-1.8198-.246-.5918-.164-1.1309-.413-1.6172-.747-.4863-.34-.873-.762-1.1602-1.266-.2871-.51-.4306-1.105-.4306-1.784h2.206c0 .416.0703.77.211 1.063.1465.293.3486.533.6064.721.2578.182.5564.316.8964.404.346.088.715.132 1.108.132.515 0 .946-.073 1.292-.22.351-.146.615-.351.791-.615.175-.264.263-.568.263-.914Zm8.298 3.472c-.703 0-1.339-.114-1.908-.343-.562-.234-1.043-.56-1.441-.976-.393-.416-.694-.905-.905-1.467-.211-.563-.317-1.169-.317-1.82v-.351c0-.744.109-1.418.326-2.022.216-.603.518-1.119.905-1.547.387-.433.844-.764 1.371-.993.527-.228 1.099-.343 1.714-.343.679 0 1.274.115 1.784.343.51.229.932.551 1.266.967.339.41.591.899.755 1.468.17.568.255 1.195.255 1.881v.905h-7.347v-1.521h5.256v-.167c-.012-.38-.088-.738-.229-1.072-.135-.334-.343-.603-.624-.808-.281-.206-.656-.308-1.125-.308-.352 0-.665.076-.94.228-.27.147-.496.361-.677.642-.182.281-.322.621-.422 1.02-.094.392-.141.835-.141 1.327v.351c0 .416.056.803.167 1.16.117.352.287.66.51.923.223.264.492.472.809.624.316.147.676.22 1.081.22.509 0 .964-.102 1.362-.308.398-.205.744-.495 1.037-.87l1.116 1.081c-.205.299-.471.586-.799.862-.329.269-.73.489-1.205.659-.468.17-1.013.255-1.634.255Zm9.492-1.688c.346 0 .657-.067.932-.202.281-.14.507-.334.677-.58.176-.246.272-.53.29-.852h1.995c-.012.615-.193 1.174-.545 1.678-.351.504-.817.906-1.397 1.204-.58.293-1.222.44-1.925.44-.727 0-1.36-.123-1.899-.369-.539-.252-.987-.598-1.344-1.037-.358-.44-.627-.947-.809-1.521-.176-.574-.264-1.189-.264-1.846v-.307c0-.657.088-1.272.264-1.846.182-.58.451-1.09.809-1.529.357-.44.805-.783 1.344-1.029.539-.252 1.169-.378 1.89-.378.762 0 1.43.153 2.004.457.574.299 1.025.718 1.353 1.257.334.534.507 1.155.519 1.864h-1.995c-.018-.352-.106-.668-.264-.95-.152-.287-.369-.515-.65-.685-.276-.17-.607-.255-.993-.255-.428 0-.783.088-1.064.264-.281.17-.501.404-.659.703-.158.293-.272.624-.343.993-.064.363-.096.741-.096 1.134v.307c0 .393.032.774.096 1.143.065.369.176.7.334.993.164.287.387.519.668.694.281.17.639.255 1.072.255Zm11.392-.729v-7.269h2.127V553h-2.004l-.123-2.241Zm.298-1.978.712-.017c0 .638-.07 1.227-.211 1.766-.14.533-.357.999-.65 1.398-.293.392-.668.7-1.125.923-.457.216-1.005.325-1.643.325-.463 0-.888-.068-1.275-.202-.387-.135-.721-.343-1.002-.624-.275-.282-.489-.648-.641-1.099-.153-.451-.229-.99-.229-1.617v-6.144h2.118v6.161c0 .346.041.636.123.87.082.229.194.414.334.554.141.141.305.24.492.299.188.059.387.088.598.088.604 0 1.078-.117 1.424-.352.351-.24.6-.562.747-.966.152-.405.228-.859.228-1.363Zm6.276-3.48V553h-2.118v-9.51h2.022l.096 1.811Zm2.91-1.872-.018 1.968c-.129-.023-.269-.041-.422-.052-.146-.012-.293-.018-.439-.018-.364 0-.683.053-.958.158-.276.1-.507.246-.695.44-.181.187-.322.416-.421.685-.1.27-.159.572-.176.906l-.484.035c0-.598.059-1.152.176-1.661.117-.51.293-.958.527-1.345.241-.387.54-.689.897-.905.363-.217.782-.326 1.257-.326.129 0 .266.012.413.036.152.023.266.049.343.079Zm3.744.061V553h-2.127v-9.51h2.127Zm-2.267-2.496c0-.322.105-.589.316-.8.217-.216.516-.325.897-.325.375 0 .671.109.887.325.217.211.326.478.326.8 0 .317-.109.58-.326.791-.216.211-.512.317-.887.317-.381 0-.68-.106-.897-.317-.211-.211-.316-.474-.316-.791Zm9.097 2.496v1.547h-5.361v-1.547h5.361Zm-3.814-2.329h2.118v9.211c0 .293.041.519.123.677.088.152.208.255.36.307.153.053.331.08.536.08.147 0 .287-.009.422-.027.135-.017.243-.035.325-.053l.009 1.618c-.176.052-.381.099-.615.14-.229.041-.492.062-.791.062-.486 0-.917-.085-1.292-.255-.375-.176-.668-.46-.879-.853-.211-.392-.316-.914-.316-1.564v-9.343Zm8.359 10.802 2.584-8.473h2.267l-3.814 10.96c-.088.235-.202.489-.343.765-.141.275-.325.536-.554.782-.222.252-.501.454-.835.607-.334.158-.738.237-1.213.237-.187 0-.369-.018-.545-.053-.169-.029-.331-.061-.483-.097l-.009-1.617c.059.006.129.012.211.018.088.006.158.009.211.009.352 0 .645-.044.879-.132.234-.082.425-.217.571-.405.153-.187.282-.439.387-.755l.686-1.846Zm-1.459-8.473 2.258 7.119.378 2.233-1.467.378-3.455-9.73h2.286Zm22.343 2.971v4.887c-.182.24-.466.504-.853.791-.381.281-.888.524-1.52.729-.633.205-1.421.308-2.365.308-.802 0-1.538-.135-2.206-.405-.668-.275-1.245-.676-1.731-1.204-.481-.527-.853-1.169-1.116-1.924-.264-.762-.396-1.629-.396-2.602v-.888c0-.966.12-1.828.36-2.584.246-.761.598-1.406 1.055-1.933.457-.528 1.008-.926 1.652-1.196.651-.275 1.386-.413 2.206-.413 1.049 0 1.916.176 2.602.528.691.345 1.225.826 1.6 1.441.375.615.612 1.318.712 2.109h-2.163c-.07-.445-.208-.843-.413-1.195-.199-.351-.486-.627-.861-.826-.369-.205-.85-.308-1.441-.308-.51 0-.958.097-1.345.29-.387.194-.709.478-.967.853-.252.375-.442.832-.571 1.371-.129.539-.194 1.154-.194 1.846v.905c0 .703.074 1.327.22 1.872.153.545.369 1.005.651 1.38.287.375.635.659 1.045.853.411.187.874.281 1.389.281.504 0 .917-.041 1.239-.123.323-.088.578-.191.765-.308.193-.123.343-.24.448-.351v-2.541h-2.663v-1.643h4.861Zm4.509-1.16V553h-2.118v-9.51h2.021l.097 1.811Zm2.909-1.872-.017 1.968c-.129-.023-.27-.041-.422-.052-.147-.012-.293-.018-.44-.018-.363 0-.682.053-.958.158-.275.1-.507.246-.694.44-.182.187-.322.416-.422.685-.1.27-.158.572-.176.906l-.483.035c0-.598.058-1.152.176-1.661.117-.51.293-.958.527-1.345.24-.387.539-.689.896-.905.364-.217.783-.326 1.257-.326.129 0 .267.012.413.036.153.023.267.049.343.079Zm.844 4.922v-.203c0-.685.1-1.321.299-1.907.2-.592.487-1.104.862-1.538.38-.439.843-.779 1.388-1.019.551-.246 1.172-.37 1.864-.37.697 0 1.318.124 1.863.37.551.24 1.016.58 1.397 1.019.381.434.671.946.87 1.538.2.586.299 1.222.299 1.907v.203c0 .685-.099 1.321-.299 1.907-.199.586-.489 1.098-.87 1.538-.381.433-.843.773-1.388 1.019-.545.241-1.163.361-1.855.361-.697 0-1.321-.12-1.872-.361-.545-.246-1.008-.586-1.389-1.019-.38-.44-.67-.952-.87-1.538-.199-.586-.299-1.222-.299-1.907Zm2.119-.203v.203c0 .427.044.832.131 1.212.088.381.226.715.414 1.002.187.288.427.513.72.677.293.164.642.246 1.046.246.393 0 .733-.082 1.02-.246.293-.164.533-.389.72-.677.188-.287.326-.621.413-1.002.094-.38.141-.785.141-1.212v-.203c0-.421-.047-.82-.141-1.195-.087-.381-.228-.718-.421-1.011-.188-.293-.428-.521-.721-.685-.287-.17-.63-.255-1.028-.255-.399 0-.745.085-1.038.255-.287.164-.524.392-.711.685-.188.293-.326.63-.414 1.011-.087.375-.131.774-.131 1.195Zm14.37 2.611v-7.269h2.127V553h-2.004l-.123-2.241Zm.299-1.978.712-.017c0 .638-.07 1.227-.211 1.766-.14.533-.357.999-.65 1.398-.293.392-.668.7-1.125.923-.457.216-1.005.325-1.644.325-.463 0-.888-.068-1.274-.202-.387-.135-.721-.343-1.002-.624-.276-.282-.489-.648-.642-1.099-.152-.451-.228-.99-.228-1.617v-6.144h2.118v6.161c0 .346.041.636.123.87.082.229.193.414.334.554.141.141.305.24.492.299.188.059.387.088.598.088.603 0 1.078-.117 1.424-.352.351-.24.6-.562.747-.966.152-.405.228-.859.228-1.363Zm6.276-3.463v11.338h-2.118V543.49h1.951l.167 1.828Zm6.196 2.839v.185c0 .691-.082 1.333-.246 1.925-.158.586-.395 1.098-.712 1.538-.31.433-.694.77-1.151 1.01-.457.241-.984.361-1.582.361-.592 0-1.11-.109-1.556-.325-.439-.223-.811-.537-1.116-.941-.305-.404-.551-.879-.738-1.424-.182-.55-.311-1.154-.387-1.81v-.712c.076-.697.205-1.33.387-1.899.187-.568.433-1.057.738-1.467.305-.41.677-.727 1.116-.95.44-.222.952-.334 1.538-.334.598 0 1.128.118 1.591.352.463.229.853.557 1.169.984.317.422.554.932.712 1.53.158.591.237 1.251.237 1.977Zm-2.118.185v-.185c0-.439-.041-.846-.123-1.221-.082-.381-.211-.715-.387-1.002-.175-.288-.401-.51-.676-.668-.27-.164-.595-.246-.976-.246-.375 0-.697.064-.967.193-.269.123-.495.296-.676.518-.182.223-.323.484-.422.783-.1.293-.17.612-.211.958v1.705c.07.422.19.808.36 1.16.17.351.41.633.721.844.316.205.721.307 1.213.307.381 0 .706-.082.975-.246.27-.164.49-.389.659-.677.176-.293.305-.629.387-1.01.082-.381.123-.785.123-1.213Z"
            fill="#DB0057" />
        <rect x="40" y="520" width="48" height="48" rx="2" fill="#DB0057" />
        <path
            d="M80.2695 540.768c-1.0383-1.269-2.5381-2.077-4.1533-2.423-.1153-1.269-.6922-2.538-1.7305-3.461-1.4998-1.385-3.8072-1.5-5.4223-.231-.5769-1.038-1.2691-2.077-2.0766-2.884-.923-.923-1.9613-1.615-3.2303-2.077-1.1537-.461-2.3074-.692-3.5765-.692-1.269 0-2.6534.231-3.8071.808-3.3457 1.384-5.5377 4.73-5.6531 8.306v.462c-2.8842.807-4.7301 3.461-4.6147 6.46v.462c.3461 3.691 3.4611 6.46 7.1528 6.345h.5769v-1.731h-.5769c-2.7688.116-5.1915-1.961-5.4223-4.845v-.346c-.1153-2.423 1.6152-4.615 4.0379-4.961.4615-.115.6922-.461.6922-.923v-.923c.1154-2.999 1.8459-5.653 4.6148-6.922 1.0383-.461 2.0766-.692 3.2303-.692 2.0766 0 4.0379.923 5.5376 2.307.923.923 1.7306 2.192 2.192 3.461.1154.346.3461.462.6923.577h.1153c.2308 0 .4615-.115.6922-.346.4615-.692 1.3844-1.154 2.192-1.154 1.2691 0 2.7689.923 2.9996 3.577 0 .346.3461.692.6922.807 3.2303.692 4.8455 2.423 4.8455 5.192 0 4.615-3.9225 5.076-5.5377 5.076v1.731c3.461 0 7.2682-1.731 7.2682-6.807-.2307-1.385-.6922-2.884-1.7305-4.153Z"
            fill="#fff" />
        <path fill-rule="evenodd" clip-rule="evenodd"
            d="M70.6939 547.459h-.8076v-3.346c-.1153-1.384-.8075-2.769-1.9612-3.576-1.1537-.923-2.5381-1.5-4.0379-1.5-2.9996 0-5.8838 2.538-5.8838 5.076v3.346h-.8076c-.4614 0-.8075.346-.8075.808v10.152c0 .461.3461.807.8075.807h13.6135c.4615 0 .8076-.346.8076-.807v-10.152c-.1154-.462-.4615-.808-.923-.808Zm-11.0753-3.461c0-1.615 2.192-3.346 4.2686-3.346 1.0383 0 2.0766.462 2.8842 1.154.6922.577 1.2691 1.384 1.2691 2.307v3.346h-8.5373l.1154-3.461Zm8.4219 6.807H69.8863v-1.616H58.0034v8.538H69.771v-1.731h-1.7305v-1.73h1.7305v-1.731h-1.7305v-1.73Z"
            fill="#fff" />
        <path fill-rule="evenodd" clip-rule="evenodd"
            d="M63.0796 556.804v-2.423c-1.269-.461-1.8459-1.846-1.269-3 .4614-1.269 1.8458-1.845 2.9995-1.384 1.2691.461 1.8459 1.846 1.3844 3-.2307.692-.8075 1.153-1.3844 1.384v2.423h-1.7305Zm1.4998-4.5c0-.346-.3461-.692-.6922-.692s-.6922.231-.6922.692c0 .346.3461.693.6922.693s.6922-.347.6922-.693Z"
            fill="#fff" />
        <rect x="41" y="521" width="638" height="126" rx="1" stroke="#DB0057" stroke-width="2" />
    </g>
    <path
        d="m360 232 5.774-10h-11.548L360 232Zm-1-168v159h2V64h-2ZM360 318l5.774-10h-11.548L360 318Zm-1-24v15h2v-15h-2Z"
        fill="#232F3E" />
    <defs>
        <clipPath id="a">
            <path fill="#fff" transform="translate(16 160)" d="M0 0h688v544H0z" />
        </clipPath>
        <clipPath id="b">
            <path fill="#fff" transform="translate(24 240)" d="M0 0h672v456H0z" />
        </clipPath>
        <clipPath id="c">
            <path fill="#fff" transform="translate(88 456)" d="M0 0h248v208H0z" />
        </clipPath>
        <clipPath id="d">
            <path fill="#fff" transform="translate(384 456)" d="M0 0h248v208H0z" />
        </clipPath>
        <clipPath id="e">
            <path fill="#fff" transform="translate(56 320)" d="M0 0h608v368H0z" />
        </clipPath>
        <clipPath id="f">
            <path fill="#fff" transform="translate(72 416)" d="M0 0h280v264H0z" />
        </clipPath>
        <clipPath id="g">
            <path fill="#fff" transform="translate(368 416)" d="M0 0h280v264H0z" />
        </clipPath>
        <clipPath id="h">
            <path fill="#fff" transform="translate(8 80)" d="M0 0h704v632H0z" />
        </clipPath>
        <clipPath id="i">
            <path fill="#fff" transform="translate(154 568)" d="M0 0h108v69H0z" />
        </clipPath>
        <clipPath id="j">
            <path fill="#fff" transform="translate(458 568)" d="M0 0h108v69H0z" />
        </clipPath>
        <clipPath id="k">
            <path fill="#fff" transform="translate(40 520)" d="M0 0h640v128H0z" />
        </clipPath>
    </defs>
</svg>