<?xml version="1.0" encoding="UTF-8"?>
<svg width="600px" height="600px" viewBox="0 0 720 720" version="1.1" xmlns="http://www.w3.org/2000/svg" xmlns:xlink="http://www.w3.org/1999/xlink">
    <title>topology</title>
    <defs>
        <rect id="path-1" x="0" y="0" width="688" height="544" rx="2"></rect>
        <mask id="mask-2" maskContentUnits="userSpaceOnUse" maskUnits="objectBoundingBox" x="0" y="0" width="688" height="544" fill="white">
            <use xlink:href="#path-1"></use>
        </mask>
        <rect id="path-3" x="0" y="0" width="280" height="264" rx="2"></rect>
        <mask id="mask-4" maskContentUnits="userSpaceOnUse" maskUnits="objectBoundingBox" x="0" y="0" width="280" height="264" fill="white">
            <use xlink:href="#path-3"></use>
        </mask>
        <rect id="path-5" x="0" y="0" width="280" height="264" rx="2"></rect>
        <mask id="mask-6" maskContentUnits="userSpaceOnUse" maskUnits="objectBoundingBox" x="0" y="0" width="280" height="264" fill="white">
            <use xlink:href="#path-5"></use>
        </mask>
        <rect id="path-7" x="0" y="0" width="608" height="368" rx="2"></rect>
        <mask id="mask-8" maskContentUnits="userSpaceOnUse" maskUnits="objectBoundingBox" x="0" y="0" width="608" height="368" fill="white">
            <use xlink:href="#path-7"></use>
        </mask>
        <linearGradient x1="0%" y1="100%" x2="100%" y2="0%" id="linearGradient-9">
            <stop stop-color="#C8511B" offset="0%"></stop>
            <stop stop-color="#FF9900" offset="100%"></stop>
        </linearGradient>
    </defs>
    <g id="topology" stroke="none" stroke-width="1" fill="none" fill-rule="evenodd">
        <g id="aws" transform="translate(8, 80)">
            <rect id="boundary-aws" stroke="#232F3E" stroke-width="2" x="1" y="1" width="702" height="630" rx="2"></rect>
            <g id="icon-AWS">
                <rect id="Rectangle" fill="#232F3E" x="0" y="0" width="48" height="48" rx="2"></rect>
                <path d="M35.3416364,34.1891434 L11.8172727,34.1891434 C11.2232727,34.1891434 10.7569091,34.0762343 10.3952727,33.8479616 C9.13690909,33.0543252 7.638,31.5243252 7.638,28.751507 C7.638,25.0647797 10.2013636,23.8546888 11.7313636,23.4627797 C12.1093636,23.3654161 12.3670909,23.0127797 12.345,22.6216888 L12.2811818,21.5850525 C12.2811818,18.617507 14.3241818,15.4241434 16.9309091,14.3179616 C18.1058182,13.8188706 19.1907273,13.6200525 20.1741818,13.6200525 C22.9731818,13.6200525 24.9490909,15.2261434 25.8122727,16.0950525 C26.7638182,17.0523252 27.5067273,18.2771434 28.0213636,19.7367797 C28.1213655,20.0232905 28.3720073,20.2307113 28.6721664,20.2753574 C28.9723256,20.3200035 29.2724855,20.1945097 29.4515455,19.949507 C30.1960909,18.9390525 31.4773636,18.5201434 32.6383636,18.8989616 C33.9589091,19.3325979 34.7149091,20.6416888 34.7132727,22.4392343 C34.6481868,22.8789526 34.9460834,23.2901953 35.3841818,23.3654161 C36.8814545,23.6239616 40.3644545,24.6687797 40.3644545,28.8046888 C40.3644545,33.6016888 35.781,34.1482343 35.3424545,34.1891434 L35.3416364,34.1891434 Z M36.3283636,21.893507 C36.1565455,19.6295979 34.9947273,17.9506888 33.1480909,17.3444161 C31.76503,16.8923963 30.248376,17.1444083 29.0858182,18.0194161 C28.5343636,16.8330525 27.8258182,15.7996888 26.9716364,14.9414161 C24.054,12.0057797 20.0604545,11.2121434 16.2910909,12.8108706 C13.0715455,14.1780525 10.644,17.9498706 10.6456364,21.632507 L10.6718182,22.0743252 C8.88981818,22.6920525 6,24.3725979 6,28.7506888 C6,32.4545979 8.20581818,34.4010525 9.51981818,35.2306888 C10.1514545,35.6299616 10.9025455,35.8238706 11.8156364,35.8246888 L35.3768182,35.8246888 C35.3967525,35.8246888 35.4166784,35.8238696 35.4365455,35.8222343 C37.707,35.6577797 42,33.9772343 42,28.805507 C42,24.7293252 39.1821818,22.6020525 36.3283636,21.8943252 L36.3283636,21.893507 Z" id="Shape" fill="#A8ADB2"></path>
            </g>
            <text id="Amazon-Web-Services" font-family="Roboto-Medium, Roboto" font-size="18" font-weight="400" letter-spacing="0.15" fill="#232F3E">
                <tspan x="56" y="31">Amazon Web Services Cloud</tspan>
            </text>
        </g>
        <g id="region" transform="translate(16, 160)">
            <use id="boundary-region" stroke="#147EBA" mask="url(#mask-2)" stroke-width="4" stroke-dasharray="5,5" xlink:href="#path-1"></use>
            <g id="icon-region" fill-rule="nonzero">
                <rect id="Rectangle" fill="#147EBA" x="0" y="0" width="48" height="48" rx="2"></rect>
                <path d="M37.5771429,25.152 L32.4754286,18.8434286 L37.5771429,12.5211429 L15.1542857,12.5211429 L15.1542857,10.7382857 C15.9682547,10.4725698 16.5207464,9.71565625 16.5257143,8.85942857 C16.4392684,7.81400294 15.5655651,7.009564 14.5165714,7.009564 C13.4675778,7.009564 12.5938745,7.81400294 12.5074286,8.85942857 C12.5081022,9.71706462 13.0622378,10.4762304 13.8788571,10.7382857 L13.8788571,39.7714286 L10.4228571,39.7714286 L10.4228571,41.1428571 L18.528,41.1428571 L18.528,39.7714286 L15.1542857,39.7714286 L15.1542857,25.152 L37.5771429,25.152 Z M14.4685714,8.22857143 C14.7316901,8.22303026 14.9717515,8.37800726 15.0750193,8.62007732 C15.178287,8.86214738 15.1240179,9.14268655 14.9379237,9.3287808 C14.7518294,9.51487504 14.4712902,9.56914412 14.2292202,9.4658764 C13.9871501,9.36260867 13.8321731,9.12254724 13.8377143,8.85942857 C13.8449873,8.51407324 14.1232161,8.23584447 14.4685714,8.22857143 L14.4685714,8.22857143 Z M34.6971429,13.8925714 L30.7062857,18.8434286 L34.6971429,23.7805714 L15.1542857,23.7805714 L15.1542857,13.8925714 L34.6971429,13.8925714 Z" id="Shape" fill="#FFFFFF"></path>
            </g>
            <text id="Region" font-family="Roboto-Medium, Roboto" font-size="18" font-weight="400" letter-spacing="0.15" fill="#147EBA">
                <tspan x="60" y="31">Region</tspan>
            </text>
        </g>
        <g id="vpc" transform="translate(24, 240)">
            <rect id="bundary-vpc" stroke="#248814" stroke-width="2" x="1" y="1" width="670" height="454" rx="2"></rect>
            <g id="icon-vpc" fill-rule="nonzero">
                <rect id="Purple_Gradient" fill="#248814" x="0" y="0" width="48" height="48" rx="2"></rect>
                <g id="Icon_Test" transform="translate(7.9886, 8.752)" fill="#FFFFFF">
                    <path d="M15.3329595,21.0207668 L6.3729595,21.0207668 C2.8657595,21.0207668 0.184159496,18.6783668 0.00495949617,15.4591668 C0.00495949617,15.3247668 0.00495949617,15.1711668 0.00495949617,15.0175668 C-0.107252987,12.2671417 1.69514697,9.80377324 4.3505595,9.07836681 C4.3505595,8.90556681 4.3505595,8.73916681 4.3505595,8.56636681 C4.41656496,5.04314453 6.59436533,1.90509579 9.87183238,0.610622259 C13.1492994,-0.683851275 16.8836528,0.119123933 19.3393595,2.64636681 C20.176891,3.4753302 20.8577003,4.4488442 21.3489595,5.51996681 C22.0511303,4.95585015 22.9250538,4.64873492 23.8257595,4.64956681 C25.6817595,4.64956681 27.6657595,5.97436681 27.9921595,8.92476681 C29.5693136,9.23676471 30.992168,10.0791849 32.0241595,11.3119668 L31.0193595,12.0991668 C30.0610557,11.0027678 28.7421073,10.2854051 27.3009595,10.0767668 C27.0042485,10.0291816 26.7806031,9.78157416 26.7633595,9.48156681 C26.6161595,7.03036681 25.1825595,5.92956681 23.8257595,5.92956681 C22.9620473,5.93759921 22.1519654,6.34974617 21.6369595,7.04316681 C21.4969224,7.22981633 21.2663999,7.32545865 21.0353595,7.29276681 C20.8032833,7.25732846 20.6092376,7.09767063 20.5297595,6.87676681 C20.0916304,5.63262756 19.380975,4.50213883 18.4497595,3.56796681 C16.3595984,1.41748864 13.1844611,0.728555698 10.3910065,1.81939975 C7.59755178,2.9102438 5.7295072,5.56853926 5.6497595,8.56636681 C5.65068017,8.87212277 5.6677707,9.17761607 5.7009595,9.48156681 C5.73283594,9.79726013 5.52859251,10.0886474 5.2209595,10.1663668 C3.7681595,10.5247668 1.3169595,11.6383668 1.3169595,15.0175668 C1.31056772,15.1326782 1.31056772,15.2480555 1.3169595,15.3631668 C1.4577595,17.9231668 3.6017595,19.7407668 6.4369595,19.7407668 L15.3969595,19.7407668 L15.3329595,21.0207668 Z" id="Path"></path>
                    <path d="M24.2929595,30.4543668 C16.7025595,30.4543668 16.6129561,21.9231668 16.6129561,21.8399668 L16.6129561,14.0511668 C16.6120895,13.7833444 16.7780751,13.5433037 17.0289595,13.4495668 L24.0689595,10.8447668 C24.2138969,10.7935237 24.3720221,10.7935237 24.5169595,10.8447668 L31.5569595,13.4495668 C31.8078439,13.5433037 31.9738295,13.7833444 31.9729629,14.0511668 L31.9729629,22.3199668 C31.9729629,22.4031668 31.8833595,30.4543668 24.2929595,30.4543668 Z M17.8929595,14.4991668 L17.8929595,21.8399668 C17.8929595,22.1407668 17.9825595,29.1743668 24.2929595,29.1743668 C30.6033595,29.1743668 30.6929595,22.6015668 30.6929595,22.3199668 L30.6929595,14.4991668 L24.2929595,12.1247668 L17.8929595,14.4991668 Z" id="Shape"></path>
                    <path d="M24.2929595,28.0607668 C20.2225595,28.0607668 19.2241595,22.8959668 19.1729595,22.6783668 C19.1666332,22.6402274 19.1666332,22.6013063 19.1729595,22.5631668 L19.1729595,15.9327668 C19.1727056,15.6704924 19.332498,15.4346083 19.5761595,15.3375668 L24.0561595,13.5711668 C24.2082183,13.5106072 24.3777007,13.5106072 24.5297595,13.5711668 L29.0097595,15.3375668 C29.253421,15.4346083 29.4132134,15.6704924 29.4129595,15.9327668 L29.4129595,22.5631668 C29.4161066,22.6015023 29.4161066,22.6400313 29.4129595,22.6783668 C29.3617595,22.8959668 28.3633595,28.0607668 24.2929595,28.0607668 Z M20.4529595,22.4991668 C20.5553595,22.9855668 21.4705595,26.7807668 24.2929595,26.7807668 C27.1153595,26.7807668 28.0305595,22.9919668 28.1329595,22.4991668 L28.1329595,16.3679668 L24.2929595,14.8575668 L20.4529595,16.3679668 L20.4529595,22.4991668 Z" id="Shape"></path>
                </g>
            </g>
            <text font-family="Roboto-Medium, Roboto" font-size="18" font-weight="400" letter-spacing="0.15" fill="#248814">
                <tspan x="56" y="31">VPC</tspan>
            </text>
        </g>
        <g id="az-all" transform="translate(72, 416)">
            <g id="az2">
                <g id="subnet2" transform="translate(16, 40)">
                    <rect id="boundary-subnet2" fill="#E9F3E6" x="0" y="0" width="248" height="208" rx="2"></rect>
                    <g id="icon-subnet2" fill-rule="nonzero">
                        <rect id="Rectangle" fill="#248814" x="0" y="0" width="48" height="48" rx="2"></rect>
                        <path d="M24.0137143,24.452506 C22.3366305,24.4420424 20.9245033,25.7042004 20.7474602,27.3719463 C20.5704171,29.0396923 21.6860837,30.5701936 23.328,30.912 L23.328,35.424 L24.6994286,35.424 L24.6994286,30.912 C26.3413449,30.5701936 27.4570115,29.0396923 27.2799684,27.3719463 C27.1029253,25.7042004 25.6907981,24.4420424 24.0137143,24.452506 L24.0137143,24.452506 Z M24.0137143,29.6091429 C23.2482406,29.6091429 22.5581404,29.1480326 22.2652063,28.4408272 C21.9722722,27.7336217 22.1341926,26.919593 22.6754642,26.3783213 C23.2167358,25.8370497 24.0307645,25.6751293 24.73797,25.9680634 C25.4451755,26.2609975 25.9062857,26.9510977 25.9062857,27.7165714 L25.9062857,27.7165714 C25.9062857,28.7618098 25.0589526,29.6091429 24.0137143,29.6091429 L24.0137143,29.6091429 Z" id="Shape" fill="#FFFFFF"></path>
                        <path d="M31.1588571,19.6114286 L31.1588571,15.9497143 C31.1588571,11.9959867 27.9537276,8.79085714 24,8.79085714 C20.0462724,8.79085714 16.8411429,11.9959867 16.8411429,15.9497143 L16.8411429,15.9497143 L16.8411429,19.6114286 L12.5348571,19.6114286 L12.5348571,39.2091429 L35.4651429,39.2091429 L35.4651429,19.6114286 L31.1588571,19.6114286 Z M18.2125714,15.9497143 C18.2125714,13.8820652 19.315649,11.9714786 21.1062857,10.937654 C22.8969223,9.90382945 25.1030777,9.90382945 26.8937143,10.937654 C28.684351,11.9714786 29.7874286,13.8820652 29.7874286,15.9497143 L29.7874286,19.6114286 L18.2125714,19.6114286 L18.2125714,15.9497143 Z M34.0937143,37.8925714 L13.9062857,37.8925714 L13.9062857,20.9828571 L34.0937143,20.9828571 L34.0937143,37.8925714 Z" id="Shape" fill="#FFFFFF"></path>
                    </g>
                    <text font-family="Roboto-Medium, Roboto" font-size="18" font-weight="400" letter-spacing="0.15" fill="#248814">
                        <tspan x="56" y="31">Subnet</tspan>
                    </text>
                </g>
                <use id="boundary-az2" stroke="#6BA6D9" mask="url(#mask-4)" stroke-width="4" stroke-dasharray="5" xlink:href="#path-3"></use>
                <text font-family="Roboto-Medium, Roboto" font-size="18" font-weight="400" letter-spacing="0.15" fill="#5B9CD5">
                    <tspan x="68" y="25">Availability Zone</tspan>
                </text>
            </g>
            <g id="az1" transform="translate(296, 0)">
                <g id="subnet1" transform="translate(16, 40)">
                    <rect id="boundary-subnet1" fill="#E9F3E6" x="0" y="0" width="248" height="208" rx="2"></rect>
                    <g id="icon-subnet1" fill-rule="nonzero">
                        <rect id="Rectangle" fill="#248814" x="0" y="0" width="48" height="48" rx="2"></rect>
                        <path d="M24.0137143,24.452506 C22.3366305,24.4420424 20.9245033,25.7042004 20.7474602,27.3719463 C20.5704171,29.0396923 21.6860837,30.5701936 23.328,30.912 L23.328,35.424 L24.6994286,35.424 L24.6994286,30.912 C26.3413449,30.5701936 27.4570115,29.0396923 27.2799684,27.3719463 C27.1029253,25.7042004 25.6907981,24.4420424 24.0137143,24.452506 L24.0137143,24.452506 Z M24.0137143,29.6091429 C23.2482406,29.6091429 22.5581404,29.1480326 22.2652063,28.4408272 C21.9722722,27.7336217 22.1341926,26.919593 22.6754642,26.3783213 C23.2167358,25.8370497 24.0307645,25.6751293 24.73797,25.9680634 C25.4451755,26.2609975 25.9062857,26.9510977 25.9062857,27.7165714 L25.9062857,27.7165714 C25.9062857,28.7618098 25.0589526,29.6091429 24.0137143,29.6091429 L24.0137143,29.6091429 Z" id="Shape" fill="#FFFFFF"></path>
                        <path d="M31.1588571,19.6114286 L31.1588571,15.9497143 C31.1588571,11.9959867 27.9537276,8.79085714 24,8.79085714 C20.0462724,8.79085714 16.8411429,11.9959867 16.8411429,15.9497143 L16.8411429,15.9497143 L16.8411429,19.6114286 L12.5348571,19.6114286 L12.5348571,39.2091429 L35.4651429,39.2091429 L35.4651429,19.6114286 L31.1588571,19.6114286 Z M18.2125714,15.9497143 C18.2125714,13.8820652 19.315649,11.9714786 21.1062857,10.937654 C22.8969223,9.90382945 25.1030777,9.90382945 26.8937143,10.937654 C28.684351,11.9714786 29.7874286,13.8820652 29.7874286,15.9497143 L29.7874286,19.6114286 L18.2125714,19.6114286 L18.2125714,15.9497143 Z M34.0937143,37.8925714 L13.9062857,37.8925714 L13.9062857,20.9828571 L34.0937143,20.9828571 L34.0937143,37.8925714 Z" id="Shape" fill="#FFFFFF"></path>
                    </g>
                    <text font-family="Roboto-Medium, Roboto" font-size="18" font-weight="400" letter-spacing="0.15" fill="#248814">
                        <tspan x="56" y="31">Subnet</tspan>
                    </text>
                </g>
                <use id="boundary-az1" stroke="#5B9CD5" mask="url(#mask-6)" stroke-width="4" stroke-dasharray="5" xlink:href="#path-5"></use>
                <text font-family="Roboto-Medium, Roboto" font-size="18" font-weight="400" letter-spacing="0.15" fill="#5B9CD5">
                    <tspan x="72" y="25">Availability Zone</tspan>
                </text>
            </g>
        </g>
        <g id="ec2" transform="translate(56, 320)">
            <g id="icon-ec2-instance-2" transform="translate(98, 248)">
                <path d="M37.6363636,40.3636364 L70.3636364,40.3636364 L70.3636364,7.63636364 L37.6363636,7.63636364 L37.6363636,40.3636364 Z M78,12 L78,9.81818182 L72.5454545,9.81818182 L72.5454545,6.54545455 C72.5454545,5.94296209 72.0570379,5.45454545 71.4545455,5.45454545 L68.1818182,5.45454545 L68.1818182,0 L66,0 L66,5.45454545 L61.6363636,5.45454545 L61.6363636,0 L59.4545455,0 L59.4545455,5.45454545 L55.0909091,5.45454545 L55.0909091,0 L52.9090909,0 L52.9090909,5.45454545 L48.5454545,5.45454545 L48.5454545,0 L46.3636364,0 L46.3636364,5.45454545 L42,5.45454545 L42,0 L39.8181818,0 L39.8181818,5.45454545 L36.5454545,5.45454545 C35.9429621,5.45454545 35.4545455,5.94296209 35.4545455,6.54545455 L35.4545455,9.81818182 L30,9.81818182 L30,12 L35.4545455,12 L35.4545455,16.3636364 L30,16.3636364 L30,18.5454545 L35.4545455,18.5454545 L35.4545455,22.9090909 L30,22.9090909 L30,25.0909091 L35.4545455,25.0909091 L35.4545455,29.4545455 L30,29.4545455 L30,31.6363636 L35.4545455,31.6363636 L35.4545455,36 L30,36 L30,38.1818182 L35.4545455,38.1818182 L35.4545455,41.4545455 C35.4545455,42.0570379 35.9429621,42.5454545 36.5454545,42.5454545 L39.8181818,42.5454545 L39.8181818,48 L42,48 L42,42.5454545 L46.3636364,42.5454545 L46.3636364,48 L48.5454545,48 L48.5454545,42.5454545 L52.9090909,42.5454545 L52.9090909,48 L55.0909091,48 L55.0909091,42.5454545 L59.4545455,42.5454545 L59.4545455,48 L61.6363636,48 L61.6363636,42.5454545 L66,42.5454545 L66,48 L68.1818182,48 L68.1818182,42.5454545 L71.4545455,42.5454545 C72.0570379,42.5454545 72.5454545,42.0570379 72.5454545,41.4545455 L72.5454545,38.1818182 L78,38.1818182 L78,36 L72.5454545,36 L72.5454545,31.6363636 L78,31.6363636 L78,29.4545455 L72.5454545,29.4545455 L72.5454545,25.0909091 L78,25.0909091 L78,22.9090909 L72.5454545,22.9090909 L72.5454545,18.5454545 L78,18.5454545 L78,16.3636364 L72.5454545,16.3636364 L72.5454545,12 L78,12 Z" id="Shape" fill="#D45B07"></path>
                <text id="EC2-Instance" font-family="Roboto-Medium, Roboto" font-size="18" font-weight="400" letter-spacing="0.15" fill="#232F3E">
                    <tspan x="0" y="65">EC2 Instance</tspan>
                </text>
            </g>
            <g id="icon-ec2-instance-1" transform="translate(402, 248)">
                <path d="M37.6363636,40.3636364 L70.3636364,40.3636364 L70.3636364,7.63636364 L37.6363636,7.63636364 L37.6363636,40.3636364 Z M78,12 L78,9.81818182 L72.5454545,9.81818182 L72.5454545,6.54545455 C72.5454545,5.94296209 72.0570379,5.45454545 71.4545455,5.45454545 L68.1818182,5.45454545 L68.1818182,0 L66,0 L66,5.45454545 L61.6363636,5.45454545 L61.6363636,0 L59.4545455,0 L59.4545455,5.45454545 L55.0909091,5.45454545 L55.0909091,0 L52.9090909,0 L52.9090909,5.45454545 L48.5454545,5.45454545 L48.5454545,0 L46.3636364,0 L46.3636364,5.45454545 L42,5.45454545 L42,0 L39.8181818,0 L39.8181818,5.45454545 L36.5454545,5.45454545 C35.9429621,5.45454545 35.4545455,5.94296209 35.4545455,6.54545455 L35.4545455,9.81818182 L30,9.81818182 L30,12 L35.4545455,12 L35.4545455,16.3636364 L30,16.3636364 L30,18.5454545 L35.4545455,18.5454545 L35.4545455,22.9090909 L30,22.9090909 L30,25.0909091 L35.4545455,25.0909091 L35.4545455,29.4545455 L30,29.4545455 L30,31.6363636 L35.4545455,31.6363636 L35.4545455,36 L30,36 L30,38.1818182 L35.4545455,38.1818182 L35.4545455,41.4545455 C35.4545455,42.0570379 35.9429621,42.5454545 36.5454545,42.5454545 L39.8181818,42.5454545 L39.8181818,48 L42,48 L42,42.5454545 L46.3636364,42.5454545 L46.3636364,48 L48.5454545,48 L48.5454545,42.5454545 L52.9090909,42.5454545 L52.9090909,48 L55.0909091,48 L55.0909091,42.5454545 L59.4545455,42.5454545 L59.4545455,48 L61.6363636,48 L61.6363636,42.5454545 L66,42.5454545 L66,48 L68.1818182,48 L68.1818182,42.5454545 L71.4545455,42.5454545 C72.0570379,42.5454545 72.5454545,42.0570379 72.5454545,41.4545455 L72.5454545,38.1818182 L78,38.1818182 L78,36 L72.5454545,36 L72.5454545,31.6363636 L78,31.6363636 L78,29.4545455 L72.5454545,29.4545455 L72.5454545,25.0909091 L78,25.0909091 L78,22.9090909 L72.5454545,22.9090909 L72.5454545,18.5454545 L78,18.5454545 L78,16.3636364 L72.5454545,16.3636364 L72.5454545,12 L78,12 Z" id="Shape" fill="#D45B07"></path>
                <text id="EC2-Instance" font-family="Roboto-Medium, Roboto" font-size="18" font-weight="400" letter-spacing="0.15" fill="#232F3E">
                    <tspan x="0" y="65">EC2 Instance</tspan>
                </text>
            </g>
            <g id="asg">
                <use id="boundary-asg" stroke="#D86613" mask="url(#mask-8)" stroke-width="4" stroke-dasharray="5" xlink:href="#path-7"></use>
                <g id="icon-asg" transform="translate(280, 4)" fill-rule="nonzero">
                    <path d="M2,0 L46,0 C47.1045695,-2.02906125e-16 48,0.8954305 48,2 L48,46 C48,47.1045695 47.1045695,48 46,48 L2,48 C0.8954305,48 9.55813795e-16,47.1045695 0,46 L0,2 C-1.3527075e-16,0.8954305 0.8954305,1.02344917e-15 2,0 Z" id="Path" fill="url(#linearGradient-9)"></path>
                    <path d="M28.8000111,21.5544 L28.8000111,19.7256 C28.8019991,19.3918425 28.5337471,19.1192986 28.2,19.116 L19.8,19.116 C19.47,19.116 19.2,19.3884 19.2,19.7256 L19.2,28.2612 C19.2,28.5972 19.47,28.8708 19.8,28.8708 L28.2,28.8708 C28.53,28.8708 28.8000111,28.5984 28.8000111,28.2612 L28.8000111,21.5544 L28.8000111,21.5544 Z M30,17.8956 L31.2,17.8956 L31.2,19.116 L29.8896,19.116 C29.9568,19.308 30,19.5108 30,19.7256 L30,21.5544 L31.2,21.5544 L31.2,22.7736 L30,22.7736 L30,25.2132 L31.2,25.2132 L31.2,26.4324 L30,26.4324 L30,28.2612 C30,28.476 29.9568,28.68 29.8896,28.8708 L31.2,28.8708 L31.2,30.0912 L30,30.0912 L30,31.3104 L28.8,31.3104 L28.8,29.9784 C28.6081295,30.0507773 28.4050554,30.0889553 28.2,30.0912 L26.4,30.0912 L26.4,31.3104 L25.2,31.3104 L25.2,30.0912 L22.8,30.0912 L22.8,31.3104 L21.6,31.3104 L21.6,30.0912 L19.8,30.0912 C19.5888,30.0912 19.3884,30.0468 19.2,29.9784 L19.2,31.3104 L18,31.3104 L18,30.0912 L16.8,30.0912 L16.8,28.8708 L18.1104,28.8708 C18.039313,28.6753265 18.001981,28.4691887 18,28.2612 L18,26.4324 L16.8,26.4324 L16.8,25.212 L18,25.212 L18,22.7724 L16.8,22.7724 L16.8,21.5532 L18,21.5532 L18,19.7244 C18,19.5084 18.0432,19.3056 18.1104,19.1148 L16.8,19.1148 L16.8,17.8944 L18,17.8944 L18,16.6752 L19.2,16.6752 L19.2,18.0072 C19.3884,17.9388 19.5888,17.8944 19.8,17.8944 L21.6,17.8944 L21.6,16.6752 L22.8,16.6752 L22.8,17.8944 L25.2,17.8944 L25.2,16.6752 L26.4,16.6752 L26.4,17.8944 L28.2,17.8944 C28.4112,17.8944 28.6116,17.9388 28.8,18.0072 L28.8,16.6752 L30,16.6752 L30,17.8944 L30,17.8956 Z M25.2,38.2032 L25.2,32.5296 L24,32.5296 L24,38.2032 L21.4572,35.1684 L20.5428,35.9604 L24.6,40.8 L28.6572,35.9604 L27.7428,35.1684 L25.2,38.2044 L25.2,38.2032 Z M11.0112,21.4092 L13.998,23.9928 L7.2,23.9928 L7.2,25.2132 L13.998,25.2132 L11.0112,27.7968 L11.7888,28.7256 L16.554,24.6036 L11.7888,20.4804 L11.0112,21.4092 L11.0112,21.4092 Z M40.8,23.9928 L34.002,23.9928 L36.9888,21.4092 L36.2112,20.4804 L31.446,24.6036 L36.2112,28.7256 L36.9888,27.7968 L34.002,25.2132 L40.8,25.2132 L40.8,23.9928 Z M21.4572,12.8328 L20.5428,12.0408 L24.6,7.2 L28.6572,12.0408 L27.7428,12.8328 L25.2,9.7968 L25.2,15.4572 L24,15.4572 L24,9.798 L21.4572,12.8328 Z" id="Shape" fill="#FFFFFF"></path>
                </g>
                <text id="ASG" font-family="Roboto-Medium, Roboto" font-size="18" font-weight="400" letter-spacing="0.15" fill="#DA6912">
                    <tspan x="225" y="76">Auto Scaling Group</tspan>
                </text>
            </g>
        </g>
        <g id="security-group" transform="translate(40, 520)">
            <text font-family="Roboto-Medium, Roboto" font-size="18" font-weight="400" letter-spacing="0.15" fill="#DB0057">
                <tspan x="56" y="33">Security Group</tspan>
            </text>
            <g id="icon-sg">
                <rect id="Rectangle" fill="#DB0057" x="0" y="0" width="48" height="48" rx="2"></rect>
                <path d="M40.2694766,20.767559 C39.2311626,19.4985086 37.7313756,18.690931 36.1162205,18.3448263 C36.0008523,17.0757758 35.4240111,15.8067253 34.3856971,14.8837795 C32.8859102,13.4993608 30.5785456,13.3839926 28.9633905,14.6530431 C28.3865493,13.614729 27.69434,12.576415 26.8867624,11.7688374 C25.9638166,10.8458916 24.9255026,10.1536823 23.6564521,9.69220936 C22.5027698,9.23073645 21.3490876,9 20.0800371,9 C18.8109866,9 17.4265679,9.23073645 16.2728856,9.80757758 C12.9272071,11.1919963 10.7352108,14.5376748 10.6198425,18.1140898 C10.6198425,18.2294581 10.6198425,18.3448263 10.6198425,18.5755628 C7.73563689,19.3831403 5.88974528,22.0366095 6.0051135,25.0361834 C6.0051135,25.1515516 6.0051135,25.3822881 6.0051135,25.4976563 C6.35121818,29.1894395 9.46616028,31.958277 13.1579435,31.8429087 L13.7347846,31.8429087 L13.7347846,31.8429087 L13.7347846,30.1123853 L13.1579435,30.1123853 C10.3891061,30.2277536 7.96637335,28.1511255 7.73563689,25.2669199 C7.73563689,25.1515516 7.73563689,25.0361834 7.73563689,24.9208152 C7.62026867,22.4980824 9.35079206,20.3060861 11.7735248,19.9599815 C12.2349977,19.8446132 12.4657342,19.4985086 12.4657342,19.0370357 C12.4657342,18.690931 12.4657342,18.4601945 12.4657342,18.1140898 C12.5811024,15.114516 14.3116258,12.4610468 17.0804632,11.1919963 C18.1187772,10.7305234 19.1570913,10.4997869 20.3107735,10.4997869 C22.3874016,10.4997869 24.3486614,11.4227327 25.8484484,12.8071515 C26.7713942,13.7300973 27.5789718,14.9991477 28.0404447,16.2681982 C28.1558129,16.6143029 28.3865493,16.7296711 28.732654,16.8450394 L28.8480222,16.8450394 C29.0787587,16.8450394 29.3094951,16.7296711 29.5402316,16.4989347 C30.0017045,15.8067253 30.9246503,15.3452524 31.7322279,15.3452524 C33.0012784,15.3452524 34.5010653,16.2681982 34.7318018,18.9216674 C34.7318018,19.2677721 35.0779064,19.6138768 35.4240111,19.729245 C38.6543214,20.4214544 40.2694766,22.1519778 40.2694766,24.9208152 C40.2694766,29.5355442 36.3469569,29.9970171 34.7318018,29.9970171 L34.7318018,29.9970171 L34.7318018,31.7275405 C38.1928485,31.7275405 42,29.9970171 42,24.9208152 C41.7692635,23.5363965 41.3077906,22.0366095 40.2694766,20.767559 Z" id="Path" fill="#FFFFFF" fill-rule="nonzero"></path>
                <path d="M30.6939139,27.4589162 L29.8863363,27.4589162 L29.8863363,24.1132376 C29.770968,22.7288189 29.0787587,21.3444002 27.9250764,20.5368226 C26.7713942,19.6138768 25.3869755,19.0370357 23.8871885,19.0370357 C20.8876147,19.0370357 18.003409,21.5751366 18.003409,24.1132376 L18.003409,27.4589162 L17.1958314,27.4589162 C16.7343585,27.4589162 16.3882538,27.8050208 16.3882538,28.2664937 L16.3882538,38.4188976 C16.3882538,38.8803705 16.7343585,39.2264752 17.1958314,39.2264752 L30.8092821,39.2264752 C31.270755,39.2264752 31.6168597,38.8803705 31.6168597,38.4188976 L31.6168597,28.2664937 C31.5014914,27.8050208 31.1553868,27.4589162 30.6939139,27.4589162 Z M19.6185642,23.9978694 C19.6185642,22.3827142 21.8105605,20.6521908 23.8871885,20.6521908 C24.9255026,20.6521908 25.9638166,21.1136637 26.7713942,21.8058731 C27.4636035,22.3827142 28.0404447,23.1902918 28.0404447,24.1132376 L28.0404447,27.4589162 L19.5031959,27.4589162 L19.6185642,23.9978694 L19.6185642,23.9978694 Z M29.770968,30.8045947 L28.0404447,30.8045947 L28.0404447,32.5351181 L29.770968,32.5351181 L29.770968,34.2656415 L28.0404447,34.2656415 L28.0404447,35.9961649 L29.770968,35.9961649 L29.770968,37.7266883 L18.003409,37.7266883 L18.003409,29.1894395 L29.8863363,29.1894395 L29.8863363,30.8045947 L29.770968,30.8045947 L29.770968,30.8045947 Z" id="Shape" fill="#FFFFFF" fill-rule="nonzero"></path>
                <path d="M23.0796109,34.3810097 L23.0796109,36.8037425 L24.8101343,36.8037425 L24.8101343,34.3810097 C25.3869755,34.1502733 25.9638166,33.6888004 26.194553,32.996591 C26.6560259,31.8429087 26.0791848,30.45849 24.8101343,29.9970171 C23.6564521,29.5355442 22.2720334,30.1123853 21.8105605,31.3814358 C21.2337193,32.5351181 21.8105605,33.9195368 23.0796109,34.3810097 Z M23.8871885,31.6121723 C24.2332932,31.6121723 24.5793979,31.958277 24.5793979,32.3043816 C24.5793979,32.6504863 24.2332932,32.996591 23.8871885,32.996591 C23.5410838,32.996591 23.1949792,32.6504863 23.1949792,32.3043816 C23.1949792,31.8429087 23.5410838,31.6121723 23.8871885,31.6121723 Z" id="Shape" fill="#FFFFFF" fill-rule="nonzero"></path>
            </g>
            <rect id="boundary-sg" stroke="#DB0057" stroke-width="2" x="1" y="1" width="638" height="126" rx="2"></rect>
        </g>
        <g id="alb" transform="translate(336, 244)" fill="#4D27AA">
            <path d="M34.5701234,35.3173792 L37.1282471,35.3173792 L37.1282471,32.7265289 L34.5701234,32.7265289 L34.5701234,35.3173792 Z M27.0004773,35.3173792 L29.5913275,35.3173792 L29.5913275,32.7265289 L27.0004773,32.7265289 L27.0004773,35.3173792 Z M18.4097634,35.3173792 L21.0006136,35.3173792 L21.0006136,32.7265289 L18.4097634,32.7265289 L18.4097634,35.3173792 Z M10.8717529,35.3173792 L13.3644235,35.3173792 L13.3644235,32.7265289 L10.8717529,32.7265289 L10.8717529,35.3173792 Z M17.4552397,16.2269039 L30.5458512,16.2269039 L30.5458512,9.81795868 L17.4552397,9.81795868 L17.4552397,16.2269039 Z M38.2191314,30.5447603 L36.5457149,30.5447603 L36.5457149,26.8630258 C36.5457149,26.2605471 36.0573093,25.7721415 35.4548306,25.7721415 L32.7276198,25.7721415 L32.7276198,22.090407 C32.7276198,21.4879283 32.2392143,20.9995227 31.6367355,20.9995227 L25.0914297,20.9995227 L25.0914297,18.4086725 L31.6367355,18.4086725 C32.2392143,18.4086725 32.7276198,17.920267 32.7276198,17.3177882 L32.7276198,8.72707438 C32.7276198,8.12459562 32.2392143,7.63619009 31.6367355,7.63619009 L16.3643554,7.63619009 C15.7618766,7.63619009 15.2734711,8.12459562 15.2734711,8.72707438 L15.2734711,17.3177882 C15.2734711,17.920267 15.7618766,18.4086725 16.3643554,18.4086725 L22.9096611,18.4086725 L22.9096611,20.9995227 L16.3643554,20.9995227 C15.7618766,20.9995227 15.2734711,21.4879283 15.2734711,22.090407 L15.2734711,25.7721415 L12.5462603,25.7721415 C11.9437816,25.7721415 11.455376,26.2605471 11.455376,26.8630258 L11.455376,30.5447603 L9.77977773,30.5447603 C9.17729897,30.5447603 8.68889343,31.0331659 8.68889343,31.6356446 L8.68889343,36.4082634 C8.68889343,37.0107422 9.17729897,37.4991477 9.77977773,37.4991477 L14.4553078,37.4991477 C15.0577866,37.4991477 15.5461921,37.0107422 15.5461921,36.4082634 L15.5461921,31.6356446 C15.5461921,31.0331659 15.0577866,30.5447603 14.4553078,30.5447603 L13.6371446,30.5447603 L13.6371446,27.9539101 L18.1370423,27.9539101 L18.1370423,30.5447603 L17.3188791,30.5447603 C16.7164004,30.5447603 16.2279948,31.0331659 16.2279948,31.6356446 L16.2279948,36.4082634 C16.2279948,37.0107422 16.7164004,37.4991477 17.3188791,37.4991477 L22.0914979,37.4991477 C22.6939767,37.4991477 23.1823822,37.0107422 23.1823822,36.4082634 L23.1823822,31.6356446 C23.1823822,31.0331659 22.6939767,30.5447603 22.0914979,30.5447603 L20.3188109,30.5447603 L20.3188109,26.8630258 C20.3188109,26.2605471 19.8304054,25.7721415 19.2279266,25.7721415 L17.4552397,25.7721415 L17.4552397,23.1812913 L30.5458512,23.1812913 L30.5458512,25.7721415 L28.7731642,25.7721415 C28.1706855,25.7721415 27.6822799,26.2605471 27.6822799,26.8630258 L27.6822799,30.5447603 L25.909593,30.5447603 C25.3071142,30.5447603 24.8187087,31.0331659 24.8187087,31.6356446 L24.8187087,36.4082634 C24.8187087,37.0107422 25.3071142,37.4991477 25.909593,37.4991477 L30.6822118,37.4991477 C31.2846905,37.4991477 31.7730961,37.0107422 31.7730961,36.4082634 L31.7730961,31.6356446 C31.7730961,31.0331659 31.2846905,30.5447603 30.6822118,30.5447603 L29.8640485,30.5447603 L29.8640485,27.9539101 L34.3639463,27.9539101 L34.3639463,30.5447603 L33.4792391,30.5447603 C32.8767603,30.5447603 32.3883548,31.0331659 32.3883548,31.6356446 L32.3883548,36.4082634 C32.3883548,37.0107422 32.8767603,37.4991477 33.4792391,37.4991477 L38.2191314,37.4991477 C38.8216101,37.4991477 39.3100157,37.0107422 39.3100157,36.4082634 L39.3100157,31.6356446 C39.3100157,31.0331659 38.8216101,30.5447603 38.2191314,30.5447603 Z M24.0005454,45.8171405 C11.9691825,45.8171405 2.1817686,36.0297266 2.1817686,23.9994546 C2.1817686,11.9691825 11.9691825,2.1817686 24.0005454,2.1817686 C36.0308175,2.1817686 45.8182314,11.9691825 45.8182314,23.9994546 C45.8182314,36.0297266 36.0308175,45.8171405 24.0005454,45.8171405 Z M24.0005454,0 C10.7659371,0 0,10.7659371 0,23.9994546 C0,37.232972 10.7659371,47.9989091 24.0005454,47.9989091 C37.232972,47.9989091 48,37.232972 48,23.9994546 C48,10.7659371 37.232972,0 24.0005454,0 Z" id="Shape"></path>
        </g>
        <g id="users" transform="translate(337, 8)" fill-rule="nonzero">
            <g id="icon-users" transform="translate(0, 0)" fill="#232F3E">
                <path d="M12.6624085,23.6073717 L0.960008455,23.6073717 C0.429815095,23.6073717 0,23.177565 0,22.6473717 L0,21.2073717 C-0.00637364901,15.933629 3.60097831,11.342093 8.72640845,10.1001717 C8.96069353,10.0443337 9.2074081,10.0785996 9.41760845,10.1961717 C10.8958303,10.988078 12.6721866,10.988078 14.1504085,10.1961717 C14.3606088,10.0785996 14.6073234,10.0443337 14.8416085,10.1001717 C16.1459911,10.41901 17.3840774,10.9649378 18.4992085,11.7129717 L17.4240085,13.3065717 C16.5944712,12.7609257 15.6840951,12.3494745 14.7264085,12.0873717 C12.858983,12.9469827 10.7090339,12.9469827 8.84160845,12.0873717 C4.7513877,13.2388225 1.92428973,16.9677686 1.92000845,21.2169717 L1.92000845,21.6873717 L12.6624085,21.6873717 L12.6624085,23.6073717 Z" id="Path"></path>
                <path d="M11.7696085,12.6921717 C8.29154001,12.6921717 5.47200845,9.87264012 5.47200845,6.39457168 C5.47200845,2.91650323 8.29154001,0.0969716753 11.7696085,0.0969716753 C14.6587178,0.0695940282 17.1946889,2.01455346 17.9173335,4.81196067 C18.6399781,7.60936788 17.3633041,10.5392348 14.8224085,11.9145717 C13.8857428,12.4247189 12.8361884,12.6921717 11.7696085,12.6921717 L11.7696085,12.6921717 Z M11.7696085,2.01692853 C9.33973935,2.00633216 7.35986681,3.96473103 7.34400361,6.39457168 C7.34162448,7.99730742 8.2190889,9.47203754 9.62880845,10.2345717 C10.9637977,10.9601147 12.5754192,10.9601147 13.9104085,10.2345717 C15.6777007,9.27691662 16.5632797,7.23679825 16.0559839,5.2917851 C15.5486881,3.34677195 13.7795012,1.9990662 11.7696085,2.02657168 L11.7696085,2.01692853 Z M44.1600085,23.6073717 L32.4576085,23.6073717 L32.4576085,21.6873717 L43.2000085,21.6873717 L43.2000085,21.2073717 C43.1934747,16.9579356 40.3613433,13.2314469 36.2688085,12.0873717 C34.4033959,12.9561208 32.249421,12.9561208 30.3840085,12.0873717 C29.4060712,12.3543812 28.4808149,12.7861675 27.6480085,13.3641717 L26.5632085,11.7897717 C27.6744109,11.0072851 28.9210888,10.4376542 30.2400085,10.1097717 C30.4733983,10.0563613 30.718147,10.0869549 30.9312085,10.1961717 C32.4136234,10.9984453 34.2007935,10.9984453 35.6832085,10.1961717 C35.8919699,10.0842725 36.1347296,10.0535001 36.3648085,10.1097717 C41.4940524,11.3479205 45.106121,15.9404077 45.1008143,21.2169717 L45.1008143,22.6473717 C45.1008143,23.1701566 44.6826888,23.596916 44.1600085,23.6073717 L44.1600085,23.6073717 Z" id="Shape"></path>
                <path d="M33.3120085,12.6921717 C30.1143622,12.6875843 27.4196854,10.304452 27.0242261,7.13135033 C26.6287669,3.95824862 28.6560874,0.986620447 31.7547934,0.197327405 C34.8534994,-0.591965636 38.055393,1.04769291 39.2261196,4.02332086 C40.3968462,6.9989488 39.1706096,10.3808043 36.3648085,11.9145717 C35.4281428,12.4247189 34.3785884,12.6921717 33.3120085,12.6921717 Z M33.3120085,2.01697168 C30.8821394,2.00633216 28.9022668,3.96473103 28.8864036,6.39457168 C28.8840245,7.99730742 29.7614889,9.47203754 31.1712085,10.2345717 C32.5061977,10.9601147 34.1178192,10.9601147 35.4528085,10.2345717 C37.2311006,9.28190874 38.1256388,7.23533866 37.6170536,5.28310126 C37.1084684,3.33086386 35.3290825,1.98088849 33.3120085,2.01697168 L33.3120085,2.01697168 Z M37.8624085,45.1977717 L7.20000845,45.1977717 C6.6698151,45.1977717 6.23994861,44.767965 6.23994861,44.2377717 L6.23994861,42.2025717 C6.22004389,34.915451 11.1976198,28.564477 18.2784085,26.8425717 C18.5114998,26.7838184 18.7581515,26.8146499 18.9696085,26.9289717 C21.1890736,28.1151091 23.8541433,28.1151091 26.0736085,26.9289717 C26.2850655,26.8146499 26.5317171,26.7838184 26.7648085,26.8425717 C33.8552328,28.5538082 38.843746,34.9086021 38.8224766,42.2025717 L38.8224766,44.2377717 C38.8224766,44.767965 38.3926018,45.1977717 37.8624085,45.1977717 L37.8624085,45.1977717 Z M8.16000845,43.2777717 L36.9024085,43.2777717 L36.9024085,42.2025717 C36.9005782,35.9398518 32.6971554,30.4572974 26.6496085,28.8297717 C24.0422835,30.0917477 21.0009334,30.0917477 18.3936085,28.8297717 C12.3536794,30.4645501 8.15949637,35.9453164 8.16000845,42.2025717 L8.16000845,43.2777717 Z" id="Shape"></path>
                <path d="M22.5600085,29.7417896 C21.1076772,29.7447334 19.6780322,29.3815441 18.4032085,28.6857717 C14.9381895,26.7927263 13.1973336,22.7915445 14.1742282,18.9658872 C15.1511227,15.1402299 18.597194,12.4635476 22.5456085,12.4635476 C26.4940229,12.4635476 29.9400942,15.1402299 30.9169888,18.9658872 C31.8938833,22.7915445 30.1530274,26.7927263 26.6880085,28.6857717 C25.4217434,29.3768687 24.0025891,29.7399082 22.5600085,29.7417896 L22.5600085,29.7417896 Z M22.5600085,14.6217717 C19.5315433,14.5869333 16.8686121,16.6192239 16.1030935,19.5495475 C15.3375749,22.4798711 16.6662597,25.5549327 19.3248085,27.0057717 C21.3361118,28.0861369 23.7551051,28.0861369 25.7664085,27.0057717 C28.4372106,25.568221 29.7807629,22.4924267 29.0205159,19.5561432 C28.2602688,16.6198598 25.5928617,14.5825619 22.5600085,14.6217717 L22.5600085,14.6217717 Z" id="Shape"></path>
            </g>
            <g id="www-to-alb-2" transform="translate(22.5, 56)" fill="#222222">
                <path id="www-to-alb" d="M1.5,0 L1.5,154 L7.5,154 L0.5,168 L-6.5,154 L-0.5,154 L-0.5,0 L1.5,0 Z"></path>
            </g>
            <g id="alb-to-asg-2" transform="translate(22.5, 286)" fill="#222222">
                <path id="alb-to-asg" d="M1.5,0 L1.5,10 L7.5,10 L0.5,24 L-6.5,10 L-0.5,10 L-0.5,0 L1.5,0 Z"></path>
            </g>
        </g>
    </g>
</svg>